<?xml version="1.0" encoding="UTF-8"?>
<svg width="125px" height="28px" viewBox="0 0 125 28" version="1.1" xmlns="http://www.w3.org/2000/svg" xmlns:xlink="http://www.w3.org/1999/xlink">
    <!-- Generator: Sketch 64 (93537) - https://sketch.com -->
    <title>21Fragen</title>
    <desc>Created with Sketch.</desc>
    <g id="Tinus-Essays" stroke="none" stroke-width="1" fill="none" fill-rule="evenodd">
        <g id="webseite-3.-Iteration" transform="translate(-172.000000, -47.000000)" fill="#000000" fill-rule="nonzero">
            <path d="M187.24,68 L187.24,64.052 L178.896,64.052 C181.808,61.672 186.26,58.2 186.26,53.244 C186.26,49.52 183.908,47.28 179.484,47.28 C176.572,47.28 174.22,48.68 173.184,50.276 L174.108,54.168 C175.004,53.076 176.768,52.152 179.176,52.152 C181.724,52.152 183.768,53.636 183.768,54.896 C183.768,57.92 178.868,61.952 172.68,66.32 L172.68,68 L187.24,68 Z M197.6,68 L197.6,47.56 L194.856,47.56 C194.576,49.044 191.804,50.276 190.6,50.276 L190.6,55.344 C192.084,55.344 194.94,54.224 195.64,52.964 L195.64,68 L197.6,68 Z M212.776,68 L212.776,60.496 L220.616,60.496 L220.616,56.912 L212.776,56.912 L212.776,52.684 L222.8,52.684 L222.8,47.56 L210.76,47.56 L210.76,68 L212.776,68 Z M230.108,68 L230.108,60.02 C230.108,58.06 231.116,56.968 232.488,56.968 C233.748,56.968 234.42,57.276 234.756,58.004 L235.82,53.356 C235.092,52.74 234.448,52.32 233.104,52.32 C231.956,52.32 230.556,53.104 229.912,54.784 L228.96,52.6 L226.58,52.6 L226.58,57.444 L228.26,57.444 L228.26,68 L230.108,68 Z M243.996,68.28 C246.18,68.28 247.496,67.86 248.476,67.02 L248.84,68 L249.96,68 L249.96,59.152 C249.96,53.972 248.252,52.32 244.444,52.32 C242.344,52.32 240.58,52.964 239.516,54.224 L239.628,57.836 C240.384,56.94 241.784,56.184 244.164,56.184 C246.796,56.184 248.028,57.276 248.168,59.908 C246.992,59.096 245.032,58.844 243.716,58.844 C240.244,58.844 238.116,60.58 238.116,63.66 C238.116,66.376 240.02,68.28 243.996,68.28 Z M244.024,65.34 C241.896,65.34 240.3,64.304 240.3,63.156 C240.3,61.756 241.616,60.832 244.22,60.832 C245.788,60.832 247.048,61.252 248.196,62.12 L248.196,64.108 C247.3,64.948 245.76,65.34 244.024,65.34 Z M259.648,74.804 C264.268,74.804 266.34,72.116 266.34,69.708 C266.34,67.356 265.108,65.788 262.42,65.816 C260.432,65.844 258.864,66.32 257.156,66.32 C256.372,66.32 255.812,65.872 255.784,64.92 C255.756,64.36 256.148,63.968 256.624,63.716 C257.52,64.052 258.5,64.164 259.424,64.164 C262,64.164 265.332,63.184 265.332,58.872 C265.332,57.836 265.22,56.968 265.024,56.212 C265.92,55.736 267.264,56.156 267.264,56.156 L268.272,52.6 C266.312,52.376 264.856,52.768 264.128,54.224 C263.12,52.852 261.468,52.32 259.424,52.32 C255.924,52.32 253.628,53.972 253.628,58.928 C253.628,60.58 254.076,61.728 254.804,62.512 C253.908,63.184 253.572,64.248 253.6,65.2 C253.628,66.768 254.72,68.476 256.96,68.476 C258.864,68.476 260.544,68.084 262.14,68.084 C263.204,68.084 264.044,68.644 264.044,69.428 C264.044,70.408 262.896,71.36 259.844,71.36 C257.072,71.36 254.72,70.408 253.74,68.952 L253.04,71.388 C253.74,73.32 256.596,74.804 259.648,74.804 Z M259.424,61.756 C256.652,61.756 255.476,60.384 255.476,59.012 C255.504,57.444 256.596,56.408 259.424,56.408 C262.168,56.408 263.456,57.388 263.484,59.012 C263.484,60.272 262.14,61.756 259.424,61.756 Z M275.496,68.28 C278.212,68.28 280.284,66.6 281.208,64.472 L279.892,63.492 C279.08,64.612 277.904,65.2 275.44,65.172 C272.864,65.144 271.212,63.968 270.848,61.504 L281.74,61.504 C281.74,55.12 279.248,52.32 275.44,52.32 C272.08,52.32 269.14,54.56 269.14,60.524 C269.14,65.06 271.296,68.28 275.496,68.28 Z M279.92,59.684 L270.848,59.684 C271.24,57.556 273.2,56.296 275.3,56.296 C278.156,56.296 279.92,57.976 279.92,59.684 Z M286.08,68 L286.08,59.88 C286.836,57.92 288.432,57.108 290.56,57.108 C293.192,57.108 294.256,58.396 294.256,61.252 L294.256,68 L296.02,68 L296.02,59.516 C296.02,54.028 294.424,52.32 290.7,52.32 C288.6,52.32 286.892,53.3 286.08,55.12 L286.08,52.6 L284.26,52.6 L284.26,68 L286.08,68 Z" id="21Fragen"></path>
        </g>
    </g>
</svg>