<?xml version="1.0" encoding="UTF-8"?>
<svg width="339px" height="55px" viewBox="0 0 339 55" version="1.1" xmlns="http://www.w3.org/2000/svg" xmlns:xlink="http://www.w3.org/1999/xlink">
    <title>logo</title>
    <g id="Tinus-Essays" stroke="none" stroke-width="1" fill="none" fill-rule="evenodd">
        <g id="webseite-3.-Iteration" transform="translate(-59.000000, -38.000000)">
            <g id="logo" transform="translate(60.000000, 39.000000)">
                <g id="Group" transform="translate(112.000000, 8.000000)" fill="#000000" fill-rule="nonzero">
                    <path d="M4.81818182,45 L4.81818182,39.7954545 L9.86363636,39.7954545 L9.86363636,38.5454545 L4.81818182,38.5454545 L4.81818182,34.6136364 L10.3863636,34.6136364 L10.3863636,33.3636364 L3.40909091,33.3636364 L3.40909091,45 L4.81818182,45 Z M13.8636364,34.8181818 C14.125,34.8181818 14.3418561,34.7263258 14.5142045,34.5426136 C14.686553,34.3589015 14.7727273,34.1477273 14.7727273,33.9090909 C14.7727273,33.6477273 14.686553,33.4308712 14.5142045,33.2585227 C14.3418561,33.0861742 14.125,33 13.8636364,33 C13.625,33 13.4138258,33.0861742 13.2301136,33.2585227 C13.0464015,33.4308712 12.9545455,33.6477273 12.9545455,33.9090909 C12.9545455,34.1477273 13.0464015,34.3589015 13.2301136,34.5426136 C13.4138258,34.7263258 13.625,34.8181818 13.8636364,34.8181818 Z M17.1363636,34.8181818 C17.3977273,34.8181818 17.6145833,34.7263258 17.7869318,34.5426136 C17.9592803,34.3589015 18.0454545,34.1477273 18.0454545,33.9090909 C18.0454545,33.6477273 17.9592803,33.4308712 17.7869318,33.2585227 C17.6145833,33.0861742 17.3977273,33 17.1363636,33 C16.8977273,33 16.686553,33.0861742 16.5028409,33.2585227 C16.3191288,33.4308712 16.2272727,33.6477273 16.2272727,33.9090909 C16.2272727,34.1477273 16.3191288,34.3589015 16.5028409,34.5426136 C16.686553,34.7263258 16.8977273,34.8181818 17.1363636,34.8181818 Z M14.8863636,45.1136364 C15.5454545,45.1136364 16.0909091,44.9592803 16.5227273,44.6505682 C16.9545455,44.3418561 17.2727273,43.9659091 17.4772727,43.5227273 L17.4772727,43.5227273 L17.5681818,43.5227273 L17.5681818,45 L18.9090909,45 L18.9090909,36.2727273 L17.5681818,36.2727273 L17.5681818,41.4318182 C17.5681818,41.9772727 17.4498106,42.4261364 17.2130682,42.7784091 C16.9763258,43.1306818 16.6846591,43.3920455 16.3380682,43.5625 C15.9914773,43.7329545 15.6515152,43.8181818 15.3181818,43.8181818 C14.7613636,43.8181818 14.3039773,43.6287879 13.9460227,43.25 C13.5880682,42.8712121 13.4090909,42.3636364 13.4090909,41.7272727 L13.4090909,41.7272727 L13.4090909,36.2727273 L12.0681818,36.2727273 L12.0681818,41.8181818 C12.0681818,42.5606061 12.1893939,43.1751894 12.4318182,43.6619318 C12.6742424,44.1486742 13.0075758,44.5123106 13.4318182,44.7528409 C13.8560606,44.9933712 14.3409091,45.1136364 14.8863636,45.1136364 Z M22.7045455,45 L22.7045455,39.4772727 C22.7045455,39.0833333 22.8001894,38.7320076 22.9914773,38.4232955 C23.1827652,38.1145833 23.4441288,37.8721591 23.7755682,37.6960227 C24.1070076,37.5198864 24.4848485,37.4318182 24.9090909,37.4318182 C25.0871212,37.4318182 25.2566288,37.4441288 25.4176136,37.46875 C25.5785985,37.4933712 25.6818182,37.5113636 25.7272727,37.5227273 L25.7272727,37.5227273 L25.7272727,36.1590909 C25.6515152,36.1515152 25.5397727,36.1458333 25.3920455,36.1420455 C25.2443182,36.1382576 25.1212121,36.1363636 25.0227273,36.1363636 C24.5,36.1363636 24.030303,36.2708333 23.6136364,36.5397727 C23.1969697,36.8087121 22.9090909,37.1590909 22.75,37.5909091 L22.75,37.5909091 L22.6590909,37.5909091 L22.6590909,36.2727273 L21.3636364,36.2727273 L21.3636364,45 L22.7045455,45 Z M33.1590909,45 L33.1590909,39.5454545 C33.1590909,39.1174242 33.250947,38.7395833 33.4346591,38.4119318 C33.6183712,38.0842803 33.8607955,37.8276515 34.1619318,37.6420455 C34.4630682,37.4564394 34.7878788,37.3636364 35.1363636,37.3636364 C35.6439394,37.3636364 36.0587121,37.5160985 36.3806818,37.8210227 C36.7026515,38.125947 36.8636364,38.5265152 36.8636364,39.0227273 L36.8636364,39.0227273 L36.8636364,45 L38.2272727,45 L38.2272727,39.3181818 C38.2272727,38.7537879 38.3958333,38.2869318 38.7329545,37.9176136 C39.0700758,37.5482955 39.5454545,37.3636364 40.1590909,37.3636364 C40.6363636,37.3636364 41.0511364,37.5018939 41.4034091,37.7784091 C41.7556818,38.0549242 41.9318182,38.5151515 41.9318182,39.1590909 L41.9318182,39.1590909 L41.9318182,45 L43.2727273,45 L43.2727273,39.1590909 C43.2727273,38.1325758 43.0246212,37.375947 42.5284091,36.8892045 C42.032197,36.4024621 41.3939394,36.1590909 40.6136364,36.1590909 C39.9886364,36.1590909 39.4526515,36.2926136 39.0056818,36.5596591 C38.5587121,36.8267045 38.2234848,37.1856061 38,37.6363636 L38,37.6363636 L37.9090909,37.6363636 C37.6931818,37.1704545 37.3929924,36.8077652 37.0085227,36.5482955 C36.624053,36.2888258 36.1439394,36.1590909 35.5681818,36.1590909 C35,36.1590909 34.5132576,36.2888258 34.1079545,36.5482955 C33.7026515,36.8077652 33.4090909,37.1704545 33.2272727,37.6363636 L33.2272727,37.6363636 L33.1136364,37.6363636 L33.1136364,36.2727273 L31.8181818,36.2727273 L31.8181818,45 L33.1590909,45 Z M49.3863636,45.1818182 C49.9772727,45.1818182 50.5094697,45.0899621 50.9829545,44.90625 C51.4564394,44.7225379 51.8541667,44.4649621 52.1761364,44.1335227 C52.4981061,43.8020833 52.7272727,43.4166667 52.8636364,42.9772727 L52.8636364,42.9772727 L51.5681818,42.6136364 C51.4545455,42.9166667 51.2935606,43.1695076 51.0852273,43.3721591 C50.8768939,43.5748106 50.6297348,43.7263258 50.34375,43.8267045 C50.0577652,43.9270833 49.7386364,43.9772727 49.3863636,43.9772727 C48.844697,43.9772727 48.3693182,43.8589015 47.9602273,43.6221591 C47.5511364,43.3854167 47.2320076,43.0388258 47.0028409,42.5823864 C46.7736742,42.125947 46.6590909,41.5681818 46.6590909,40.9090909 L46.663,41.091 L53,41.0909091 L53,40.5227273 C53,39.7083333 52.8920455,39.0227273 52.6761364,38.4659091 C52.4602273,37.9090909 52.1704545,37.4611742 51.8068182,37.1221591 C51.4431818,36.7831439 51.0397727,36.5378788 50.5965909,36.3863636 C50.1534091,36.2348485 49.7045455,36.1590909 49.25,36.1590909 C48.4621212,36.1590909 47.7736742,36.3513258 47.1846591,36.7357955 C46.5956439,37.1202652 46.1373106,37.6543561 45.8096591,38.3380682 C45.4820076,39.0217803 45.3181818,39.8106061 45.3181818,40.7045455 C45.3181818,41.5984848 45.4820076,42.3816288 45.8096591,43.0539773 C46.1373106,43.7263258 46.6051136,44.249053 47.2130682,44.6221591 C47.8210227,44.9952652 48.5454545,45.1818182 49.3863636,45.1818182 Z M46.6677715,39.8983586 C46.6967066,39.5058923 46.7979798,39.1344697 46.9715909,38.7840909 C47.1799242,38.3636364 47.4782197,38.0217803 47.8664773,37.7585227 C48.2547348,37.4952652 48.7159091,37.3636364 49.25,37.3636364 C49.7348485,37.3636364 50.15625,37.4753788 50.5142045,37.6988636 C50.8721591,37.9223485 51.1486742,38.2272727 51.34375,38.6136364 C51.5388258,39 51.6363636,39.4393939 51.6363636,39.9318182 L51.6363636,39.9318182 L46.666,39.932 L46.6677715,39.8983586 Z M56.3863636,45 L56.3863636,39.75 C56.3863636,39.2424242 56.4857955,38.8106061 56.6846591,38.4545455 C56.8835227,38.0984848 57.15625,37.8276515 57.5028409,37.6420455 C57.8494318,37.4564394 58.2424242,37.3636364 58.6818182,37.3636364 C59.3143939,37.3636364 59.8096591,37.5539773 60.1676136,37.9346591 C60.5255682,38.3153409 60.7045455,38.8522727 60.7045455,39.5454545 L60.7045455,39.5454545 L60.7045455,45 L62.0454545,45 L62.0454545,39.4545455 C62.0454545,38.7045455 61.9214015,38.0861742 61.6732955,37.5994318 C61.4251894,37.1126894 61.0776515,36.750947 60.6306818,36.5142045 C60.1837121,36.2774621 59.6628788,36.1590909 59.0681818,36.1590909 C58.3825758,36.1590909 57.8342803,36.2926136 57.4232955,36.5596591 C57.0123106,36.8267045 56.7045455,37.1856061 56.5,37.6363636 L56.5,37.6363636 L56.3863636,37.6363636 L56.3863636,33.3636364 L55.0454545,33.3636364 L55.0454545,45 L56.3863636,45 Z M65.8409091,45 L65.8409091,39.4772727 C65.8409091,39.0833333 65.936553,38.7320076 66.1278409,38.4232955 C66.3191288,38.1145833 66.5804924,37.8721591 66.9119318,37.6960227 C67.2433712,37.5198864 67.6212121,37.4318182 68.0454545,37.4318182 C68.2234848,37.4318182 68.3929924,37.4441288 68.5539773,37.46875 C68.7149621,37.4933712 68.8181818,37.5113636 68.8636364,37.5227273 L68.8636364,37.5227273 L68.8636364,36.1590909 C68.7878788,36.1515152 68.6761364,36.1458333 68.5284091,36.1420455 C68.3806818,36.1382576 68.2575758,36.1363636 68.1590909,36.1363636 C67.6363636,36.1363636 67.1666667,36.2708333 66.75,36.5397727 C66.3333333,36.8087121 66.0454545,37.1590909 65.8863636,37.5909091 L65.8863636,37.5909091 L65.7954545,37.5909091 L65.7954545,36.2727273 L64.5,36.2727273 L64.5,45 L65.8409091,45 Z M79.5681818,45 L79.5681818,34.6136364 L83.2272727,34.6136364 L83.2272727,33.3636364 L74.5,33.3636364 L74.5,34.6136364 L78.1590909,34.6136364 L78.1590909,45 L79.5681818,45 Z M85.9090909,34.8181818 C86.1704545,34.8181818 86.3948864,34.7291667 86.5823864,34.5511364 C86.7698864,34.3731061 86.8636364,34.1590909 86.8636364,33.9090909 C86.8636364,33.6590909 86.7698864,33.4450758 86.5823864,33.2670455 C86.3948864,33.0890152 86.1704545,33 85.9090909,33 C85.6477273,33 85.4232955,33.0890152 85.2357955,33.2670455 C85.0482955,33.4450758 84.9545455,33.6590909 84.9545455,33.9090909 C84.9545455,34.1590909 85.0482955,34.3731061 85.2357955,34.5511364 C85.4232955,34.7291667 85.6477273,34.8181818 85.9090909,34.8181818 Z M86.5681818,45 L86.5681818,36.2727273 L85.2272727,36.2727273 L85.2272727,45 L86.5681818,45 Z M92.6818182,45.1818182 C93.2727273,45.1818182 93.8049242,45.0899621 94.2784091,44.90625 C94.7518939,44.7225379 95.1496212,44.4649621 95.4715909,44.1335227 C95.7935606,43.8020833 96.0227273,43.4166667 96.1590909,42.9772727 L96.1590909,42.9772727 L94.8636364,42.6136364 C94.75,42.9166667 94.5890152,43.1695076 94.3806818,43.3721591 C94.1723485,43.5748106 93.9251894,43.7263258 93.6392045,43.8267045 C93.3532197,43.9270833 93.0340909,43.9772727 92.6818182,43.9772727 C92.1401515,43.9772727 91.6647727,43.8589015 91.2556818,43.6221591 C90.8465909,43.3854167 90.5274621,43.0388258 90.2982955,42.5823864 C90.0691288,42.125947 89.9545455,41.5681818 89.9545455,40.9090909 L89.958,41.091 L96.2954545,41.0909091 L96.2954545,40.5227273 C96.2954545,39.7083333 96.1875,39.0227273 95.9715909,38.4659091 C95.7556818,37.9090909 95.4659091,37.4611742 95.1022727,37.1221591 C94.7386364,36.7831439 94.3352273,36.5378788 93.8920455,36.3863636 C93.4488636,36.2348485 93,36.1590909 92.5454545,36.1590909 C91.7575758,36.1590909 91.0691288,36.3513258 90.4801136,36.7357955 C89.8910985,37.1202652 89.4327652,37.6543561 89.1051136,38.3380682 C88.7774621,39.0217803 88.6136364,39.8106061 88.6136364,40.7045455 C88.6136364,41.5984848 88.7774621,42.3816288 89.1051136,43.0539773 C89.4327652,43.7263258 89.9005682,44.249053 90.5085227,44.6221591 C91.1164773,44.9952652 91.8409091,45.1818182 92.6818182,45.1818182 Z M89.963226,39.8983586 C89.9921612,39.5058923 90.0934343,39.1344697 90.2670455,38.7840909 C90.4753788,38.3636364 90.7736742,38.0217803 91.1619318,37.7585227 C91.5501894,37.4952652 92.0113636,37.3636364 92.5454545,37.3636364 C93.030303,37.3636364 93.4517045,37.4753788 93.8096591,37.6988636 C94.1676136,37.9223485 94.4441288,38.2272727 94.6392045,38.6136364 C94.8342803,39 94.9318182,39.4393939 94.9318182,39.9318182 L94.9318182,39.9318182 L89.962,39.932 L89.963226,39.8983586 Z M100.272727,45 L100.272,37.41 L102.227273,37.4090909 L102.227273,36.2727273 L100.272,36.273 L100.272727,35.3863636 C100.272727,35.0162338 100.344388,34.7226345 100.487709,34.5055659 L100.565341,34.4034091 C100.760417,34.1799242 101.079545,34.0681818 101.522727,34.0681818 C101.715909,34.0681818 101.872159,34.0852273 101.991477,34.1193182 C102.110795,34.1534091 102.204545,34.1818182 102.272727,34.2045455 L102.272727,34.2045455 L102.659091,33.0454545 C102.556818,33 102.401515,32.9507576 102.193182,32.8977273 C101.984848,32.844697 101.715909,32.8181818 101.386364,32.8181818 C100.969697,32.8181818 100.573864,32.9015152 100.198864,33.0681818 C99.8238636,33.2348485 99.5189394,33.4848485 99.2840909,33.8181818 C99.0492424,34.1515152 98.9318182,34.5681818 98.9318182,35.0681818 L98.9318182,35.0681818 L98.931,36.273 L97.5227273,36.2727273 L97.5227273,37.4090909 L98.931,37.41 L98.9318182,45 L100.272727,45 Z M107.409091,45.1818182 C108,45.1818182 108.532197,45.0899621 109.005682,44.90625 C109.479167,44.7225379 109.876894,44.4649621 110.198864,44.1335227 C110.520833,43.8020833 110.75,43.4166667 110.886364,42.9772727 L110.886364,42.9772727 L109.590909,42.6136364 C109.477273,42.9166667 109.316288,43.1695076 109.107955,43.3721591 C108.899621,43.5748106 108.652462,43.7263258 108.366477,43.8267045 C108.080492,43.9270833 107.761364,43.9772727 107.409091,43.9772727 C106.867424,43.9772727 106.392045,43.8589015 105.982955,43.6221591 C105.573864,43.3854167 105.254735,43.0388258 105.025568,42.5823864 C104.796402,42.125947 104.681818,41.5681818 104.681818,40.9090909 L104.685,41.091 L111.022727,41.0909091 L111.022727,40.5227273 C111.022727,39.7083333 110.914773,39.0227273 110.698864,38.4659091 C110.482955,37.9090909 110.193182,37.4611742 109.829545,37.1221591 C109.465909,36.7831439 109.0625,36.5378788 108.619318,36.3863636 C108.176136,36.2348485 107.727273,36.1590909 107.272727,36.1590909 C106.484848,36.1590909 105.796402,36.3513258 105.207386,36.7357955 C104.618371,37.1202652 104.160038,37.6543561 103.832386,38.3380682 C103.504735,39.0217803 103.340909,39.8106061 103.340909,40.7045455 C103.340909,41.5984848 103.504735,42.3816288 103.832386,43.0539773 C104.160038,43.7263258 104.627841,44.249053 105.235795,44.6221591 C105.84375,44.9952652 106.568182,45.1818182 107.409091,45.1818182 Z M104.690499,39.8983586 C104.719434,39.5058923 104.820707,39.1344697 104.994318,38.7840909 C105.202652,38.3636364 105.500947,38.0217803 105.889205,37.7585227 C106.277462,37.4952652 106.738636,37.3636364 107.272727,37.3636364 C107.757576,37.3636364 108.178977,37.4753788 108.536932,37.6988636 C108.894886,37.9223485 109.171402,38.2272727 109.366477,38.6136364 C109.561553,39 109.659091,39.4393939 109.659091,39.9318182 L109.659091,39.9318182 L104.689,39.932 L104.690499,39.8983586 Z M121.75,45.1818182 C122.477273,45.1818182 123.119318,44.9971591 123.676136,44.6278409 C124.232955,44.2585227 124.668561,43.7357955 124.982955,43.0596591 C125.297348,42.3835227 125.454545,41.5833333 125.454545,40.6590909 C125.454545,39.7424242 125.297348,38.9469697 124.982955,38.2727273 C124.668561,37.5984848 124.231061,37.0776515 123.670455,36.7102273 C123.109848,36.342803 122.462121,36.1590909 121.727273,36.1590909 C121.159091,36.1590909 120.70928,36.2528409 120.377841,36.4403409 C120.046402,36.6278409 119.792614,36.8399621 119.616477,37.0767045 C119.440341,37.313447 119.30303,37.5075758 119.204545,37.6590909 L119.204545,37.6590909 L119.090909,37.6590909 L119.090909,33.3636364 L117.75,33.3636364 L117.75,45 L119.045455,45 L119.045455,43.6590909 L119.204545,43.6590909 C119.30303,43.8181818 119.443182,44.0179924 119.625,44.2585227 C119.806818,44.499053 120.066288,44.7130682 120.403409,44.9005682 C120.74053,45.0880682 121.189394,45.1818182 121.75,45.1818182 Z M121.568182,43.9772727 C121.030303,43.9772727 120.575758,43.8361742 120.204545,43.5539773 C119.833333,43.2717803 119.551136,42.8797348 119.357955,42.3778409 C119.164773,41.875947 119.068182,41.2954545 119.068182,40.6363636 C119.068182,39.9848485 119.162879,39.4138258 119.352273,38.9232955 C119.541667,38.4327652 119.82197,38.0501894 120.193182,37.7755682 C120.564394,37.500947 121.022727,37.3636364 121.568182,37.3636364 C122.136364,37.3636364 122.608902,37.5085227 122.985795,37.7982955 C123.362689,38.0880682 123.644886,38.4801136 123.832386,38.9744318 C124.019886,39.46875 124.113636,40.0227273 124.113636,40.6363636 C124.113636,41.2575758 124.017992,41.8210227 123.826705,42.3267045 C123.635417,42.8323864 123.351326,43.2339015 122.974432,43.53125 C122.597538,43.8285985 122.128788,43.9772727 121.568182,43.9772727 Z M131.159091,45.1818182 C131.75,45.1818182 132.282197,45.0899621 132.755682,44.90625 C133.229167,44.7225379 133.626894,44.4649621 133.948864,44.1335227 C134.270833,43.8020833 134.5,43.4166667 134.636364,42.9772727 L134.636364,42.9772727 L133.340909,42.6136364 C133.227273,42.9166667 133.066288,43.1695076 132.857955,43.3721591 C132.649621,43.5748106 132.402462,43.7263258 132.116477,43.8267045 C131.830492,43.9270833 131.511364,43.9772727 131.159091,43.9772727 C130.617424,43.9772727 130.142045,43.8589015 129.732955,43.6221591 C129.323864,43.3854167 129.004735,43.0388258 128.775568,42.5823864 C128.546402,42.125947 128.431818,41.5681818 128.431818,40.9090909 L128.435,41.091 L134.772727,41.0909091 L134.772727,40.5227273 C134.772727,39.7083333 134.664773,39.0227273 134.448864,38.4659091 C134.232955,37.9090909 133.943182,37.4611742 133.579545,37.1221591 C133.215909,36.7831439 132.8125,36.5378788 132.369318,36.3863636 C131.926136,36.2348485 131.477273,36.1590909 131.022727,36.1590909 C130.234848,36.1590909 129.546402,36.3513258 128.957386,36.7357955 C128.368371,37.1202652 127.910038,37.6543561 127.582386,38.3380682 C127.254735,39.0217803 127.090909,39.8106061 127.090909,40.7045455 C127.090909,41.5984848 127.254735,42.3816288 127.582386,43.0539773 C127.910038,43.7263258 128.377841,44.249053 128.985795,44.6221591 C129.59375,44.9952652 130.318182,45.1818182 131.159091,45.1818182 Z M128.440499,39.8983586 C128.469434,39.5058923 128.570707,39.1344697 128.744318,38.7840909 C128.952652,38.3636364 129.250947,38.0217803 129.639205,37.7585227 C130.027462,37.4952652 130.488636,37.3636364 131.022727,37.3636364 C131.507576,37.3636364 131.928977,37.4753788 132.286932,37.6988636 C132.644886,37.9223485 132.921402,38.2272727 133.116477,38.6136364 C133.311553,39 133.409091,39.4393939 133.409091,39.9318182 L133.409091,39.9318182 L128.439,39.932 L128.440499,39.8983586 Z M137.5,34.8181818 C137.761364,34.8181818 137.985795,34.7291667 138.173295,34.5511364 C138.360795,34.3731061 138.454545,34.1590909 138.454545,33.9090909 C138.454545,33.6590909 138.360795,33.4450758 138.173295,33.2670455 C137.985795,33.0890152 137.761364,33 137.5,33 C137.238636,33 137.014205,33.0890152 136.826705,33.2670455 C136.639205,33.4450758 136.545455,33.6590909 136.545455,33.9090909 C136.545455,34.1590909 136.639205,34.3731061 136.826705,34.5511364 C137.014205,34.7291667 137.238636,34.8181818 137.5,34.8181818 Z M138.159091,45 L138.159091,36.2727273 L136.818182,36.2727273 L136.818182,45 L138.159091,45 Z M141.954545,45 L141.954545,39.5454545 C141.954545,39.1174242 142.046402,38.7395833 142.230114,38.4119318 C142.413826,38.0842803 142.65625,37.8276515 142.957386,37.6420455 C143.258523,37.4564394 143.583333,37.3636364 143.931818,37.3636364 C144.439394,37.3636364 144.854167,37.5160985 145.176136,37.8210227 C145.498106,38.125947 145.659091,38.5265152 145.659091,39.0227273 L145.659091,39.0227273 L145.659091,45 L147.022727,45 L147.022727,39.3181818 C147.022727,38.7537879 147.191288,38.2869318 147.528409,37.9176136 C147.86553,37.5482955 148.340909,37.3636364 148.954545,37.3636364 C149.431818,37.3636364 149.846591,37.5018939 150.198864,37.7784091 C150.551136,38.0549242 150.727273,38.5151515 150.727273,39.1590909 L150.727273,39.1590909 L150.727273,45 L152.068182,45 L152.068182,39.1590909 C152.068182,38.1325758 151.820076,37.375947 151.323864,36.8892045 C150.827652,36.4024621 150.189394,36.1590909 149.409091,36.1590909 C148.784091,36.1590909 148.248106,36.2926136 147.801136,36.5596591 C147.354167,36.8267045 147.018939,37.1856061 146.795455,37.6363636 L146.795455,37.6363636 L146.704545,37.6363636 C146.488636,37.1704545 146.188447,36.8077652 145.803977,36.5482955 C145.419508,36.2888258 144.939394,36.1590909 144.363636,36.1590909 C143.795455,36.1590909 143.308712,36.2888258 142.903409,36.5482955 C142.498106,36.8077652 142.204545,37.1704545 142.022727,37.6363636 L142.022727,37.6363636 L141.909091,37.6363636 L141.909091,36.2727273 L140.613636,36.2727273 L140.613636,45 L141.954545,45 Z M162.886364,45.2045455 C163.780303,45.2045455 164.54072,45.0549242 165.167614,44.7556818 C165.794508,44.4564394 166.27178,44.0530303 166.599432,43.5454545 C166.927083,43.0378788 167.090909,42.469697 167.090909,41.8409091 C167.090909,41.2954545 166.979167,40.8352273 166.755682,40.4602273 C166.532197,40.0852273 166.249053,39.7774621 165.90625,39.5369318 C165.563447,39.2964015 165.205492,39.1060606 164.832386,38.9659091 C164.45928,38.8257576 164.121212,38.7159091 163.818182,38.6363636 L163.818182,38.6363636 L162.636364,38.3181818 C162.420455,38.2613636 162.183712,38.186553 161.926136,38.09375 C161.668561,38.000947 161.422348,37.8816288 161.1875,37.7357955 C160.952652,37.5899621 160.760417,37.40625 160.610795,37.1846591 C160.461174,36.9630682 160.386364,36.6969697 160.386364,36.3863636 C160.386364,36.0151515 160.493371,35.6837121 160.707386,35.3920455 C160.921402,35.1003788 161.220644,34.8712121 161.605114,34.7045455 C161.989583,34.5378788 162.439394,34.4545455 162.954545,34.4545455 C163.659091,34.4545455 164.253788,34.6136364 164.738636,34.9318182 C165.223485,35.25 165.5,35.6969697 165.568182,36.2727273 L165.568182,36.2727273 L166.931818,36.2727273 C166.912879,35.6856061 166.732008,35.1609848 166.389205,34.6988636 C166.046402,34.2367424 165.583333,33.8721591 165,33.6051136 C164.416667,33.3380682 163.75,33.2045455 163,33.2045455 C162.257576,33.2045455 161.586174,33.3399621 160.985795,33.6107955 C160.385417,33.8816288 159.908144,34.2604167 159.553977,34.7471591 C159.199811,35.2339015 159.022727,35.8030303 159.022727,36.4545455 C159.022727,37.2386364 159.287879,37.8731061 159.818182,38.3579545 C160.348485,38.842803 161.068182,39.2159091 161.977273,39.4772727 L161.977273,39.4772727 L163.409091,39.8863636 C163.818182,40 164.198864,40.1325758 164.551136,40.2840909 C164.903409,40.4356061 165.1875,40.6325758 165.403409,40.875 C165.619318,41.1174242 165.727273,41.4318182 165.727273,41.8181818 C165.727273,42.2424242 165.602273,42.6126894 165.352273,42.9289773 C165.102273,43.2452652 164.763258,43.4914773 164.335227,43.6676136 C163.907197,43.84375 163.424242,43.9318182 162.886364,43.9318182 C162.424242,43.9318182 161.993371,43.8626894 161.59375,43.7244318 C161.194129,43.5861742 160.864583,43.374053 160.605114,43.0880682 C160.345644,42.8020833 160.19697,42.4393939 160.159091,42 L160.159091,42 L158.704545,42 C158.75,42.6363636 158.946023,43.1950758 159.292614,43.6761364 C159.639205,44.157197 160.116477,44.532197 160.724432,44.8011364 C161.332386,45.0700758 162.05303,45.2045455 162.886364,45.2045455 Z M170.568182,45 L170.568182,39.5454545 C170.568182,39.1174242 170.660038,38.7395833 170.84375,38.4119318 C171.027462,38.0842803 171.269886,37.8276515 171.571023,37.6420455 C171.872159,37.4564394 172.19697,37.3636364 172.545455,37.3636364 C173.05303,37.3636364 173.467803,37.5160985 173.789773,37.8210227 C174.111742,38.125947 174.272727,38.5265152 174.272727,39.0227273 L174.272727,39.0227273 L174.272727,45 L175.636364,45 L175.636364,39.3181818 C175.636364,38.7537879 175.804924,38.2869318 176.142045,37.9176136 C176.479167,37.5482955 176.954545,37.3636364 177.568182,37.3636364 C178.045455,37.3636364 178.460227,37.5018939 178.8125,37.7784091 C179.164773,38.0549242 179.340909,38.5151515 179.340909,39.1590909 L179.340909,39.1590909 L179.340909,45 L180.681818,45 L180.681818,39.1590909 C180.681818,38.1325758 180.433712,37.375947 179.9375,36.8892045 C179.441288,36.4024621 178.80303,36.1590909 178.022727,36.1590909 C177.397727,36.1590909 176.861742,36.2926136 176.414773,36.5596591 C175.967803,36.8267045 175.632576,37.1856061 175.409091,37.6363636 L175.409091,37.6363636 L175.318182,37.6363636 C175.102273,37.1704545 174.802083,36.8077652 174.417614,36.5482955 C174.033144,36.2888258 173.55303,36.1590909 172.977273,36.1590909 C172.409091,36.1590909 171.922348,36.2888258 171.517045,36.5482955 C171.111742,36.8077652 170.818182,37.1704545 170.636364,37.6363636 L170.636364,37.6363636 L170.522727,37.6363636 L170.522727,36.2727273 L169.227273,36.2727273 L169.227273,45 L170.568182,45 Z M185.704545,45.2045455 C186.212121,45.2045455 186.642045,45.1287879 186.994318,44.9772727 C187.346591,44.8257576 187.628788,44.6420455 187.840909,44.4261364 C188.05303,44.2102273 188.204545,44.0075758 188.295455,43.8181818 L188.295455,43.8181818 L188.363636,43.8181818 L188.363636,45 L189.704545,45 L189.704545,39.25 C189.704545,38.5568182 189.590909,38.0037879 189.363636,37.5909091 C189.136364,37.1780303 188.851326,36.8693182 188.508523,36.6647727 C188.16572,36.4602273 187.811553,36.3248106 187.446023,36.2585227 C187.080492,36.1922348 186.757576,36.1590909 186.477273,36.1590909 C186.037879,36.1590909 185.591856,36.21875 185.139205,36.3380682 C184.686553,36.4573864 184.269886,36.6657197 183.889205,36.9630682 C183.508523,37.2604167 183.204545,37.6742424 182.977273,38.2045455 L182.977273,38.2045455 L184.25,38.6590909 C184.397727,38.3409091 184.653409,38.0416667 185.017045,37.7613636 C185.380682,37.4810606 185.882576,37.3409091 186.522727,37.3409091 C187.140152,37.3409091 187.601326,37.4962121 187.90625,37.8068182 C188.211174,38.1174242 188.363636,38.5530303 188.363636,39.1136364 L188.363636,39.1136364 L188.363636,39.1590909 C188.363636,39.375 188.286932,39.5265152 188.133523,39.6136364 C187.980114,39.7007576 187.737689,39.7623106 187.40625,39.7982955 C187.074811,39.8342803 186.643939,39.8863636 186.113636,39.9545455 C185.708333,40.0075758 185.305871,40.0785985 184.90625,40.1676136 C184.506629,40.2566288 184.142045,40.3901515 183.8125,40.5681818 C183.482955,40.7462121 183.219697,40.9914773 183.022727,41.3039773 C182.825758,41.6164773 182.727273,42.0227273 182.727273,42.5227273 C182.727273,43.0909091 182.859848,43.5748106 183.125,43.9744318 C183.390152,44.374053 183.748106,44.6789773 184.198864,44.8892045 C184.649621,45.0994318 185.151515,45.2045455 185.704545,45.2045455 Z M185.909091,44 C185.375,44 184.934659,43.8816288 184.588068,43.6448864 C184.241477,43.4081439 184.068182,43.0568182 184.068182,42.5909091 C184.068182,42.25 184.160038,41.9801136 184.34375,41.78125 C184.527462,41.5823864 184.769886,41.4327652 185.071023,41.3323864 C185.372159,41.2320076 185.69697,41.1590909 186.045455,41.1136364 C186.189394,41.094697 186.377841,41.0710227 186.610795,41.0426136 C186.84375,41.0142045 187.08428,40.9801136 187.332386,40.9403409 C187.580492,40.9005682 187.800189,40.8532197 187.991477,40.7982955 C188.182765,40.7433712 188.306818,40.6818182 188.363636,40.6136364 L188.363636,40.6136364 L188.363636,41.8409091 C188.363636,42.2045455 188.269886,42.5511364 188.082386,42.8806818 C187.894886,43.2102273 187.618371,43.4791667 187.252841,43.6875 C186.887311,43.8958333 186.439394,44 185.909091,44 Z M193.5,45 L193.5,33.3636364 L192.159091,33.3636364 L192.159091,45 L193.5,45 Z M197.295455,45 L197.295455,33.3636364 L195.954545,33.3636364 L195.954545,45 L197.295455,45 Z M202.704545,45.1136364 C202.954545,45.1136364 203.160985,45.0956439 203.323864,45.0596591 C203.486742,45.0236742 203.613636,44.9886364 203.704545,44.9545455 L203.704545,44.9545455 L203.431818,43.75 C203.375,43.7613636 203.299242,43.7755682 203.204545,43.7926136 C203.109848,43.8096591 202.988636,43.8181818 202.840909,43.8181818 C202.643939,43.8181818 202.457386,43.7869318 202.28125,43.7244318 C202.105114,43.6619318 201.961174,43.5369318 201.849432,43.3494318 C201.737689,43.1619318 201.681818,42.8787879 201.681818,42.5 L201.681818,42.5 L201.681,37.41 L203.545455,37.4090909 L203.545455,36.2727273 L201.681,36.273 L201.681818,34.1818182 L200.340909,34.1818182 L200.34,36.273 L199.022727,36.2727273 L199.022727,37.4090909 L200.34,37.41 L200.340909,42.8636364 C200.340909,43.2987013 200.427876,43.6697588 200.601809,43.9768089 L200.696023,44.125 C200.932765,44.4583333 201.232008,44.7064394 201.59375,44.8693182 C201.955492,45.032197 202.325758,45.1136364 202.704545,45.1136364 Z M208.136364,45.2045455 C208.643939,45.2045455 209.073864,45.1287879 209.426136,44.9772727 C209.778409,44.8257576 210.060606,44.6420455 210.272727,44.4261364 C210.484848,44.2102273 210.636364,44.0075758 210.727273,43.8181818 L210.727273,43.8181818 L210.795455,43.8181818 L210.795455,45 L212.136364,45 L212.136364,39.25 C212.136364,38.5568182 212.022727,38.0037879 211.795455,37.5909091 C211.568182,37.1780303 211.283144,36.8693182 210.940341,36.6647727 C210.597538,36.4602273 210.243371,36.3248106 209.877841,36.2585227 C209.512311,36.1922348 209.189394,36.1590909 208.909091,36.1590909 C208.469697,36.1590909 208.023674,36.21875 207.571023,36.3380682 C207.118371,36.4573864 206.701705,36.6657197 206.321023,36.9630682 C205.940341,37.2604167 205.636364,37.6742424 205.409091,38.2045455 L205.409091,38.2045455 L206.681818,38.6590909 C206.829545,38.3409091 207.085227,38.0416667 207.448864,37.7613636 C207.8125,37.4810606 208.314394,37.3409091 208.954545,37.3409091 C209.57197,37.3409091 210.033144,37.4962121 210.338068,37.8068182 C210.642992,38.1174242 210.795455,38.5530303 210.795455,39.1136364 L210.795455,39.1136364 L210.795455,39.1590909 C210.795455,39.375 210.71875,39.5265152 210.565341,39.6136364 C210.411932,39.7007576 210.169508,39.7623106 209.838068,39.7982955 C209.506629,39.8342803 209.075758,39.8863636 208.545455,39.9545455 C208.140152,40.0075758 207.737689,40.0785985 207.338068,40.1676136 C206.938447,40.2566288 206.573864,40.3901515 206.244318,40.5681818 C205.914773,40.7462121 205.651515,40.9914773 205.454545,41.3039773 C205.257576,41.6164773 205.159091,42.0227273 205.159091,42.5227273 C205.159091,43.0909091 205.291667,43.5748106 205.556818,43.9744318 C205.82197,44.374053 206.179924,44.6789773 206.630682,44.8892045 C207.081439,45.0994318 207.583333,45.2045455 208.136364,45.2045455 Z M208.340909,44 C207.806818,44 207.366477,43.8816288 207.019886,43.6448864 C206.673295,43.4081439 206.5,43.0568182 206.5,42.5909091 C206.5,42.25 206.591856,41.9801136 206.775568,41.78125 C206.95928,41.5823864 207.201705,41.4327652 207.502841,41.3323864 C207.803977,41.2320076 208.128788,41.1590909 208.477273,41.1136364 C208.621212,41.094697 208.809659,41.0710227 209.042614,41.0426136 C209.275568,41.0142045 209.516098,40.9801136 209.764205,40.9403409 C210.012311,40.9005682 210.232008,40.8532197 210.423295,40.7982955 C210.614583,40.7433712 210.738636,40.6818182 210.795455,40.6136364 L210.795455,40.6136364 L210.795455,41.8409091 C210.795455,42.2045455 210.701705,42.5511364 210.514205,42.8806818 C210.326705,43.2102273 210.050189,43.4791667 209.684659,43.6875 C209.319129,43.8958333 208.871212,44 208.340909,44 Z M215.931818,45 L215.931818,33.3636364 L214.590909,33.3636364 L214.590909,45 L215.931818,45 Z M219.727273,33.3636364 L218.386364,33.3636364 L218.386364,45 L219.727273,45 L219.727,41.735 L220.666,40.864 L223.931818,45 L225.636364,45 L221.676,40.001 L225.363636,36.2727273 L223.704545,36.2727273 L219.886364,40.1590909 L219.727,40.16 L219.727273,33.3636364 Z" id="FürmehrTiefebeimSmalltalk"></path>
                    <path d="M15.24,21 L15.24,17.052 L6.896,17.052 C9.808,14.672 14.26,11.2 14.26,6.244 C14.26,2.52 11.908,0.28 7.484,0.28 C4.572,0.28 2.22,1.68 1.184,3.276 L2.108,7.168 C3.004,6.076 4.768,5.152 7.176,5.152 C9.724,5.152 11.768,6.636 11.768,7.896 C11.768,10.92 6.868,14.952 0.68,19.32 L0.68,21 L15.24,21 Z M25.6,21 L25.6,0.56 L22.856,0.56 C22.576,2.044 19.804,3.276 18.6,3.276 L18.6,8.344 C20.084,8.344 22.94,7.224 23.64,5.964 L23.64,21 L25.6,21 Z M40.776,21 L40.776,13.496 L48.616,13.496 L48.616,9.912 L40.776,9.912 L40.776,5.684 L50.8,5.684 L50.8,0.56 L38.76,0.56 L38.76,21 L40.776,21 Z M58.108,21 L58.108,13.02 C58.108,11.06 59.116,9.968 60.488,9.968 C61.748,9.968 62.42,10.276 62.756,11.004 L63.82,6.356 C63.092,5.74 62.448,5.32 61.104,5.32 C59.956,5.32 58.556,6.104 57.912,7.784 L56.96,5.6 L54.58,5.6 L54.58,10.444 L56.26,10.444 L56.26,21 L58.108,21 Z M71.996,21.28 C74.18,21.28 75.496,20.86 76.476,20.02 L76.84,21 L77.96,21 L77.96,12.152 C77.96,6.972 76.252,5.32 72.444,5.32 C70.344,5.32 68.58,5.964 67.516,7.224 L67.628,10.836 C68.384,9.94 69.784,9.184 72.164,9.184 C74.796,9.184 76.028,10.276 76.168,12.908 C74.992,12.096 73.032,11.844 71.716,11.844 C68.244,11.844 66.116,13.58 66.116,16.66 C66.116,19.376 68.02,21.28 71.996,21.28 Z M72.024,18.34 C69.896,18.34 68.3,17.304 68.3,16.156 C68.3,14.756 69.616,13.832 72.22,13.832 C73.788,13.832 75.048,14.252 76.196,15.12 L76.196,17.108 C75.3,17.948 73.76,18.34 72.024,18.34 Z M87.648,27.804 C92.268,27.804 94.34,25.116 94.34,22.708 C94.34,20.356 93.108,18.788 90.42,18.816 C88.432,18.844 86.864,19.32 85.156,19.32 C84.372,19.32 83.812,18.872 83.784,17.92 C83.756,17.36 84.148,16.968 84.624,16.716 C85.52,17.052 86.5,17.164 87.424,17.164 C90,17.164 93.332,16.184 93.332,11.872 C93.332,10.836 93.22,9.968 93.024,9.212 C93.92,8.736 95.264,9.156 95.264,9.156 L96.272,5.6 C94.312,5.376 92.856,5.768 92.128,7.224 C91.12,5.852 89.468,5.32 87.424,5.32 C83.924,5.32 81.628,6.972 81.628,11.928 C81.628,13.58 82.076,14.728 82.804,15.512 C81.908,16.184 81.572,17.248 81.6,18.2 C81.628,19.768 82.72,21.476 84.96,21.476 C86.864,21.476 88.544,21.084 90.14,21.084 C91.204,21.084 92.044,21.644 92.044,22.428 C92.044,23.408 90.896,24.36 87.844,24.36 C85.072,24.36 82.72,23.408 81.74,21.952 L81.04,24.388 C81.74,26.32 84.596,27.804 87.648,27.804 Z M87.424,14.756 C84.652,14.756 83.476,13.384 83.476,12.012 C83.504,10.444 84.596,9.408 87.424,9.408 C90.168,9.408 91.456,10.388 91.484,12.012 C91.484,13.272 90.14,14.756 87.424,14.756 Z M103.496,21.28 C106.212,21.28 108.284,19.6 109.208,17.472 L107.892,16.492 C107.08,17.612 105.904,18.2 103.44,18.172 C100.864,18.144 99.212,16.968 98.848,14.504 L109.74,14.504 C109.74,8.12 107.248,5.32 103.44,5.32 C100.08,5.32 97.14,7.56 97.14,13.524 C97.14,18.06 99.296,21.28 103.496,21.28 Z M107.92,12.684 L98.848,12.684 C99.24,10.556 101.2,9.296 103.3,9.296 C106.156,9.296 107.92,10.976 107.92,12.684 Z M114.08,21 L114.08,12.88 C114.836,10.92 116.432,10.108 118.56,10.108 C121.192,10.108 122.256,11.396 122.256,14.252 L122.256,21 L124.02,21 L124.02,12.516 C124.02,7.028 122.424,5.32 118.7,5.32 C116.6,5.32 114.892,6.3 114.08,8.12 L114.08,5.6 L112.26,5.6 L112.26,21 L114.08,21 Z" id="21Fragen"></path>
                </g>
                <g id="smiles" stroke="#000000" stroke-width="2">
                    <path d="M66.5,0 C77.2685882,0 86,8.73141176 86,19.5 C86,30.2685882 77.2685882,39 66.5,39 C55.7314118,39 47,30.2685882 47,19.5 C47,8.73141176 55.7314118,0 66.5,0 Z" id="Stroke-1"></path>
                    <path d="M75,26.7259244 C69.8273157,37.4024618 55.484873,29.4518489 57.1307271,24 L75,26.7259244 Z" id="Stroke-3" stroke-linecap="round" stroke-linejoin="round"></path>
                    <path d="M60.999,13.2 C61.443,13.2 61.799,13.558 61.799,14 C61.799,14.442 61.443,14.8 60.999,14.8 C60.557,14.8 60.201,14.442 60.201,14 C60.201,13.558 60.557,13.2 60.999,13.2 Z" id="Stroke-5"></path>
                    <path d="M75,16.2 C75.442,16.2 75.8,16.558 75.8,17 C75.8,17.442 75.442,17.8 75,17.8 C74.558,17.8 74.2,17.442 74.2,17 C74.2,16.558 74.558,16.2 75,16.2 Z" id="Stroke-7"></path>
                    <path d="M19.5,0 C30.2685882,0 39,8.73141176 39,19.5 C39,30.2685882 30.2685882,39 19.5,39 C8.73141176,39 0,30.2685882 0,19.5 C0,8.73141176 8.73141176,0 19.5,0 Z" id="Stroke-9"></path>
                    <path d="M29,25 C26.7027027,32.3651913 16.5945946,34.9762705 12,27.613455" id="Stroke-11" stroke-linecap="round" stroke-linejoin="round"></path>
                    <path d="M26,14.2 C26.442,14.2 26.8,14.558 26.8,15 C26.8,15.442 26.442,15.8 26,15.8 C25.558,15.8 25.2,15.442 25.2,15 C25.2,14.558 25.558,14.2 26,14.2 Z" id="Stroke-13"></path>
                    <path d="M12,15.2 C12.442,15.2 12.8,15.558 12.8,16 C12.8,16.442 12.442,16.8 12,16.8 C11.558,16.8 11.2,16.442 11.2,16 C11.2,15.558 11.558,15.2 12,15.2 Z" id="Stroke-15"></path>
                </g>
            </g>
        </g>
    </g>
</svg>
