<?xml version="1.0" encoding="utf-8"?>
<!-- Generator: Adobe Illustrator 24.0.1, SVG Export Plug-In . SVG Version: 6.00 Build 0)  -->
<svg version="1.1" id="Ebene_1" xmlns:figma="http://www.figma.com/figma/ns"
	 xmlns="http://www.w3.org/2000/svg" xmlns:xlink="http://www.w3.org/1999/xlink" x="0px" y="0px" viewBox="0 0 109 24"
	 style="enable-background:new 0 0 109 24;" xml:space="preserve">
<style type="text/css">
	.st0{fill:none;stroke:#000000;stroke-width:3;stroke-miterlimit:10;}
</style>
<path class="st0" d="M7,2.3c-0.2,2.5-0.3,5.1,0,7.6c0.2,1.6,0.7,3.2,0.7,4.9c0.1,1.7-0.2,3.3-0.5,4.9c2.9,0.6,5.7,1.1,8.6,1.7
	c0.6,0.1,1.3,0.2,1.9,0.3c1.4,0,2.8-0.6,4.1-1.1"/>
<path class="st0" d="M38.7,24c-0.2,0.2-0.4,0.3-0.7,0.4c-0.4,0.1-0.9,0.1-1.3-0.1c-1.6-0.7-2.5-2.5-3.1-4.1
	c-1.2-3.5-1.9-7.1-2.1-10.8c0-0.3,0-0.6,0.1-0.9c0.2-0.3,0.5-0.6,0.8-0.8c1.8-1.2,3.7-2.4,5.8-2.2c1.6,0.2,3.1,1.2,4.1,2.5
	c1,1.3,1.7,2.8,2.4,4.3c0.2,0.6,0.5,1.1,0.5,1.7C45.2,17.9,41.4,21.8,38.7,24z"/>
<path class="st0" d="M62.4,12.9c3.7,0.9,7.7-2,11.2-0.6c0.4,0.9,0.4,2-0.1,2.9c-0.4,0.7-1.2,1.2-1.9,1.7c-3,1.9-6.1,3.9-9.7,3.9
	c-0.9-1.7-2-3.2-2.8-4.9c-0.8-1.7-1.1-3.8-0.2-5.4c1.1-2,3.5-2.8,5.7-3.4c2.8-0.8,5.6-1.7,8.4-2.7"/>
<path class="st0" d="M89.1,17.7c-0.2,0-0.4,0.1-0.6,0c-0.3,0-0.5-0.2-0.7-0.4c-2.6-2.2-4.8-5-6.4-8c-0.4-0.8-0.8-1.7-0.4-2.5
	c0.3-0.6,1.1-0.9,1.8-1.2C85.1,4.8,87.5,4,90,3.1c1.3-0.5,2.7-0.9,4-0.6c1,0.2,1.8,0.8,2.8,1.2c1.4,0.6,2.9,0.7,4.4,1.1
	c1.5,0.3,3,0.9,3.9,2.1c0.8,1.1,1,2.5,1.2,3.8c0.1,0.6,0.2,1.2-0.2,1.7c-0.2,0.4-0.6,0.6-1,0.7c-2.5,1.2-4.6,2.2-7.4,2.8
	C94.9,16.5,92,17.2,89.1,17.7z"/>
</svg>
