<?xml version="1.0" encoding="UTF-8"?>
<svg width="338px" height="55px" viewBox="0 0 338 55" version="1.1" xmlns="http://www.w3.org/2000/svg" xmlns:xlink="http://www.w3.org/1999/xlink">
    <!-- Generator: Sketch 64 (93537) - https://sketch.com -->
    <title>Group</title>
    <desc>Created with Sketch.</desc>
    <defs>
        <polygon id="path-1" points="0 0.178112773 40.8154771 0.178112773 40.8154771 41 0 41"></polygon>
    </defs>
    <g id="Tinus-Essays" stroke="none" stroke-width="1" fill="none" fill-rule="evenodd">
        <g id="webseite-3.-Iteration" transform="translate(-60.000000, -38.000000)">
            <g id="Group" transform="translate(60.000000, 38.000000)">
                <path d="M116.818182,54 L116.818182,48.7954545 L121.863636,48.7954545 L121.863636,47.5454545 L116.818182,47.5454545 L116.818182,43.6136364 L122.386364,43.6136364 L122.386364,42.3636364 L115.409091,42.3636364 L115.409091,54 L116.818182,54 Z M125.863636,43.8181818 C126.125,43.8181818 126.341856,43.7263258 126.514205,43.5426136 C126.686553,43.3589015 126.772727,43.1477273 126.772727,42.9090909 C126.772727,42.6477273 126.686553,42.4308712 126.514205,42.2585227 C126.341856,42.0861742 126.125,42 125.863636,42 C125.625,42 125.413826,42.0861742 125.230114,42.2585227 C125.046402,42.4308712 124.954545,42.6477273 124.954545,42.9090909 C124.954545,43.1477273 125.046402,43.3589015 125.230114,43.5426136 C125.413826,43.7263258 125.625,43.8181818 125.863636,43.8181818 Z M129.136364,43.8181818 C129.397727,43.8181818 129.614583,43.7263258 129.786932,43.5426136 C129.95928,43.3589015 130.045455,43.1477273 130.045455,42.9090909 C130.045455,42.6477273 129.95928,42.4308712 129.786932,42.2585227 C129.614583,42.0861742 129.397727,42 129.136364,42 C128.897727,42 128.686553,42.0861742 128.502841,42.2585227 C128.319129,42.4308712 128.227273,42.6477273 128.227273,42.9090909 C128.227273,43.1477273 128.319129,43.3589015 128.502841,43.5426136 C128.686553,43.7263258 128.897727,43.8181818 129.136364,43.8181818 Z M126.886364,54.1136364 C127.545455,54.1136364 128.090909,53.9592803 128.522727,53.6505682 C128.954545,53.3418561 129.272727,52.9659091 129.477273,52.5227273 L129.477273,52.5227273 L129.568182,52.5227273 L129.568182,54 L130.909091,54 L130.909091,45.2727273 L129.568182,45.2727273 L129.568182,50.4318182 C129.568182,50.9772727 129.449811,51.4261364 129.213068,51.7784091 C128.976326,52.1306818 128.684659,52.3920455 128.338068,52.5625 C127.991477,52.7329545 127.651515,52.8181818 127.318182,52.8181818 C126.761364,52.8181818 126.303977,52.6287879 125.946023,52.25 C125.588068,51.8712121 125.409091,51.3636364 125.409091,50.7272727 L125.409091,50.7272727 L125.409091,45.2727273 L124.068182,45.2727273 L124.068182,50.8181818 C124.068182,51.5606061 124.189394,52.1751894 124.431818,52.6619318 C124.674242,53.1486742 125.007576,53.5123106 125.431818,53.7528409 C125.856061,53.9933712 126.340909,54.1136364 126.886364,54.1136364 Z M134.704545,54 L134.704545,48.4772727 C134.704545,48.0833333 134.800189,47.7320076 134.991477,47.4232955 C135.182765,47.1145833 135.444129,46.8721591 135.775568,46.6960227 C136.107008,46.5198864 136.484848,46.4318182 136.909091,46.4318182 C137.087121,46.4318182 137.256629,46.4441288 137.417614,46.46875 C137.578598,46.4933712 137.681818,46.5113636 137.727273,46.5227273 L137.727273,46.5227273 L137.727273,45.1590909 C137.651515,45.1515152 137.539773,45.1458333 137.392045,45.1420455 C137.244318,45.1382576 137.121212,45.1363636 137.022727,45.1363636 C136.5,45.1363636 136.030303,45.2708333 135.613636,45.5397727 C135.19697,45.8087121 134.909091,46.1590909 134.75,46.5909091 L134.75,46.5909091 L134.659091,46.5909091 L134.659091,45.2727273 L133.363636,45.2727273 L133.363636,54 L134.704545,54 Z M145.159091,54 L145.159091,48.5454545 C145.159091,48.1174242 145.250947,47.7395833 145.434659,47.4119318 C145.618371,47.0842803 145.860795,46.8276515 146.161932,46.6420455 C146.463068,46.4564394 146.787879,46.3636364 147.136364,46.3636364 C147.643939,46.3636364 148.058712,46.5160985 148.380682,46.8210227 C148.702652,47.125947 148.863636,47.5265152 148.863636,48.0227273 L148.863636,48.0227273 L148.863636,54 L150.227273,54 L150.227273,48.3181818 C150.227273,47.7537879 150.395833,47.2869318 150.732955,46.9176136 C151.070076,46.5482955 151.545455,46.3636364 152.159091,46.3636364 C152.636364,46.3636364 153.051136,46.5018939 153.403409,46.7784091 C153.755682,47.0549242 153.931818,47.5151515 153.931818,48.1590909 L153.931818,48.1590909 L153.931818,54 L155.272727,54 L155.272727,48.1590909 C155.272727,47.1325758 155.024621,46.375947 154.528409,45.8892045 C154.032197,45.4024621 153.393939,45.1590909 152.613636,45.1590909 C151.988636,45.1590909 151.452652,45.2926136 151.005682,45.5596591 C150.558712,45.8267045 150.223485,46.1856061 150,46.6363636 L150,46.6363636 L149.909091,46.6363636 C149.693182,46.1704545 149.392992,45.8077652 149.008523,45.5482955 C148.624053,45.2888258 148.143939,45.1590909 147.568182,45.1590909 C147,45.1590909 146.513258,45.2888258 146.107955,45.5482955 C145.702652,45.8077652 145.409091,46.1704545 145.227273,46.6363636 L145.227273,46.6363636 L145.113636,46.6363636 L145.113636,45.2727273 L143.818182,45.2727273 L143.818182,54 L145.159091,54 Z M161.386364,54.1818182 C161.977273,54.1818182 162.50947,54.0899621 162.982955,53.90625 C163.456439,53.7225379 163.854167,53.4649621 164.176136,53.1335227 C164.498106,52.8020833 164.727273,52.4166667 164.863636,51.9772727 L164.863636,51.9772727 L163.568182,51.6136364 C163.454545,51.9166667 163.293561,52.1695076 163.085227,52.3721591 C162.876894,52.5748106 162.629735,52.7263258 162.34375,52.8267045 C162.057765,52.9270833 161.738636,52.9772727 161.386364,52.9772727 C160.844697,52.9772727 160.369318,52.8589015 159.960227,52.6221591 C159.551136,52.3854167 159.232008,52.0388258 159.002841,51.5823864 C158.773674,51.125947 158.659091,50.5681818 158.659091,49.9090909 L158.663,50.091 L165,50.0909091 L165,49.5227273 C165,48.7083333 164.892045,48.0227273 164.676136,47.4659091 C164.460227,46.9090909 164.170455,46.4611742 163.806818,46.1221591 C163.443182,45.7831439 163.039773,45.5378788 162.596591,45.3863636 C162.153409,45.2348485 161.704545,45.1590909 161.25,45.1590909 C160.462121,45.1590909 159.773674,45.3513258 159.184659,45.7357955 C158.595644,46.1202652 158.137311,46.6543561 157.809659,47.3380682 C157.482008,48.0217803 157.318182,48.8106061 157.318182,49.7045455 C157.318182,50.5984848 157.482008,51.3816288 157.809659,52.0539773 C158.137311,52.7263258 158.605114,53.249053 159.213068,53.6221591 C159.821023,53.9952652 160.545455,54.1818182 161.386364,54.1818182 Z M158.667771,48.8983586 C158.696707,48.5058923 158.79798,48.1344697 158.971591,47.7840909 C159.179924,47.3636364 159.47822,47.0217803 159.866477,46.7585227 C160.254735,46.4952652 160.715909,46.3636364 161.25,46.3636364 C161.734848,46.3636364 162.15625,46.4753788 162.514205,46.6988636 C162.872159,46.9223485 163.148674,47.2272727 163.34375,47.6136364 C163.538826,48 163.636364,48.4393939 163.636364,48.9318182 L163.636364,48.9318182 L158.666,48.932 L158.667771,48.8983586 Z M168.386364,54 L168.386364,48.75 C168.386364,48.2424242 168.485795,47.8106061 168.684659,47.4545455 C168.883523,47.0984848 169.15625,46.8276515 169.502841,46.6420455 C169.849432,46.4564394 170.242424,46.3636364 170.681818,46.3636364 C171.314394,46.3636364 171.809659,46.5539773 172.167614,46.9346591 C172.525568,47.3153409 172.704545,47.8522727 172.704545,48.5454545 L172.704545,48.5454545 L172.704545,54 L174.045455,54 L174.045455,48.4545455 C174.045455,47.7045455 173.921402,47.0861742 173.673295,46.5994318 C173.425189,46.1126894 173.077652,45.750947 172.630682,45.5142045 C172.183712,45.2774621 171.662879,45.1590909 171.068182,45.1590909 C170.382576,45.1590909 169.83428,45.2926136 169.423295,45.5596591 C169.012311,45.8267045 168.704545,46.1856061 168.5,46.6363636 L168.5,46.6363636 L168.386364,46.6363636 L168.386364,42.3636364 L167.045455,42.3636364 L167.045455,54 L168.386364,54 Z M177.840909,54 L177.840909,48.4772727 C177.840909,48.0833333 177.936553,47.7320076 178.127841,47.4232955 C178.319129,47.1145833 178.580492,46.8721591 178.911932,46.6960227 C179.243371,46.5198864 179.621212,46.4318182 180.045455,46.4318182 C180.223485,46.4318182 180.392992,46.4441288 180.553977,46.46875 C180.714962,46.4933712 180.818182,46.5113636 180.863636,46.5227273 L180.863636,46.5227273 L180.863636,45.1590909 C180.787879,45.1515152 180.676136,45.1458333 180.528409,45.1420455 C180.380682,45.1382576 180.257576,45.1363636 180.159091,45.1363636 C179.636364,45.1363636 179.166667,45.2708333 178.75,45.5397727 C178.333333,45.8087121 178.045455,46.1590909 177.886364,46.5909091 L177.886364,46.5909091 L177.795455,46.5909091 L177.795455,45.2727273 L176.5,45.2727273 L176.5,54 L177.840909,54 Z M191.568182,54 L191.568182,43.6136364 L195.227273,43.6136364 L195.227273,42.3636364 L186.5,42.3636364 L186.5,43.6136364 L190.159091,43.6136364 L190.159091,54 L191.568182,54 Z M197.909091,43.8181818 C198.170455,43.8181818 198.394886,43.7291667 198.582386,43.5511364 C198.769886,43.3731061 198.863636,43.1590909 198.863636,42.9090909 C198.863636,42.6590909 198.769886,42.4450758 198.582386,42.2670455 C198.394886,42.0890152 198.170455,42 197.909091,42 C197.647727,42 197.423295,42.0890152 197.235795,42.2670455 C197.048295,42.4450758 196.954545,42.6590909 196.954545,42.9090909 C196.954545,43.1590909 197.048295,43.3731061 197.235795,43.5511364 C197.423295,43.7291667 197.647727,43.8181818 197.909091,43.8181818 Z M198.568182,54 L198.568182,45.2727273 L197.227273,45.2727273 L197.227273,54 L198.568182,54 Z M204.681818,54.1818182 C205.272727,54.1818182 205.804924,54.0899621 206.278409,53.90625 C206.751894,53.7225379 207.149621,53.4649621 207.471591,53.1335227 C207.793561,52.8020833 208.022727,52.4166667 208.159091,51.9772727 L208.159091,51.9772727 L206.863636,51.6136364 C206.75,51.9166667 206.589015,52.1695076 206.380682,52.3721591 C206.172348,52.5748106 205.925189,52.7263258 205.639205,52.8267045 C205.35322,52.9270833 205.034091,52.9772727 204.681818,52.9772727 C204.140152,52.9772727 203.664773,52.8589015 203.255682,52.6221591 C202.846591,52.3854167 202.527462,52.0388258 202.298295,51.5823864 C202.069129,51.125947 201.954545,50.5681818 201.954545,49.9090909 L201.958,50.091 L208.295455,50.0909091 L208.295455,49.5227273 C208.295455,48.7083333 208.1875,48.0227273 207.971591,47.4659091 C207.755682,46.9090909 207.465909,46.4611742 207.102273,46.1221591 C206.738636,45.7831439 206.335227,45.5378788 205.892045,45.3863636 C205.448864,45.2348485 205,45.1590909 204.545455,45.1590909 C203.757576,45.1590909 203.069129,45.3513258 202.480114,45.7357955 C201.891098,46.1202652 201.432765,46.6543561 201.105114,47.3380682 C200.777462,48.0217803 200.613636,48.8106061 200.613636,49.7045455 C200.613636,50.5984848 200.777462,51.3816288 201.105114,52.0539773 C201.432765,52.7263258 201.900568,53.249053 202.508523,53.6221591 C203.116477,53.9952652 203.840909,54.1818182 204.681818,54.1818182 Z M201.963226,48.8983586 C201.992161,48.5058923 202.093434,48.1344697 202.267045,47.7840909 C202.475379,47.3636364 202.773674,47.0217803 203.161932,46.7585227 C203.550189,46.4952652 204.011364,46.3636364 204.545455,46.3636364 C205.030303,46.3636364 205.451705,46.4753788 205.809659,46.6988636 C206.167614,46.9223485 206.444129,47.2272727 206.639205,47.6136364 C206.83428,48 206.931818,48.4393939 206.931818,48.9318182 L206.931818,48.9318182 L201.962,48.932 L201.963226,48.8983586 Z M212.272727,54 L212.272,46.41 L214.227273,46.4090909 L214.227273,45.2727273 L212.272,45.273 L212.272727,44.3863636 C212.272727,44.0162338 212.344388,43.7226345 212.487709,43.5055659 L212.565341,43.4034091 C212.760417,43.1799242 213.079545,43.0681818 213.522727,43.0681818 C213.715909,43.0681818 213.872159,43.0852273 213.991477,43.1193182 C214.110795,43.1534091 214.204545,43.1818182 214.272727,43.2045455 L214.272727,43.2045455 L214.659091,42.0454545 C214.556818,42 214.401515,41.9507576 214.193182,41.8977273 C213.984848,41.844697 213.715909,41.8181818 213.386364,41.8181818 C212.969697,41.8181818 212.573864,41.9015152 212.198864,42.0681818 C211.823864,42.2348485 211.518939,42.4848485 211.284091,42.8181818 C211.049242,43.1515152 210.931818,43.5681818 210.931818,44.0681818 L210.931818,44.0681818 L210.931,45.273 L209.522727,45.2727273 L209.522727,46.4090909 L210.931,46.41 L210.931818,54 L212.272727,54 Z M219.409091,54.1818182 C220,54.1818182 220.532197,54.0899621 221.005682,53.90625 C221.479167,53.7225379 221.876894,53.4649621 222.198864,53.1335227 C222.520833,52.8020833 222.75,52.4166667 222.886364,51.9772727 L222.886364,51.9772727 L221.590909,51.6136364 C221.477273,51.9166667 221.316288,52.1695076 221.107955,52.3721591 C220.899621,52.5748106 220.652462,52.7263258 220.366477,52.8267045 C220.080492,52.9270833 219.761364,52.9772727 219.409091,52.9772727 C218.867424,52.9772727 218.392045,52.8589015 217.982955,52.6221591 C217.573864,52.3854167 217.254735,52.0388258 217.025568,51.5823864 C216.796402,51.125947 216.681818,50.5681818 216.681818,49.9090909 L216.685,50.091 L223.022727,50.0909091 L223.022727,49.5227273 C223.022727,48.7083333 222.914773,48.0227273 222.698864,47.4659091 C222.482955,46.9090909 222.193182,46.4611742 221.829545,46.1221591 C221.465909,45.7831439 221.0625,45.5378788 220.619318,45.3863636 C220.176136,45.2348485 219.727273,45.1590909 219.272727,45.1590909 C218.484848,45.1590909 217.796402,45.3513258 217.207386,45.7357955 C216.618371,46.1202652 216.160038,46.6543561 215.832386,47.3380682 C215.504735,48.0217803 215.340909,48.8106061 215.340909,49.7045455 C215.340909,50.5984848 215.504735,51.3816288 215.832386,52.0539773 C216.160038,52.7263258 216.627841,53.249053 217.235795,53.6221591 C217.84375,53.9952652 218.568182,54.1818182 219.409091,54.1818182 Z M216.690499,48.8983586 C216.719434,48.5058923 216.820707,48.1344697 216.994318,47.7840909 C217.202652,47.3636364 217.500947,47.0217803 217.889205,46.7585227 C218.277462,46.4952652 218.738636,46.3636364 219.272727,46.3636364 C219.757576,46.3636364 220.178977,46.4753788 220.536932,46.6988636 C220.894886,46.9223485 221.171402,47.2272727 221.366477,47.6136364 C221.561553,48 221.659091,48.4393939 221.659091,48.9318182 L221.659091,48.9318182 L216.689,48.932 L216.690499,48.8983586 Z M233.75,54.1818182 C234.477273,54.1818182 235.119318,53.9971591 235.676136,53.6278409 C236.232955,53.2585227 236.668561,52.7357955 236.982955,52.0596591 C237.297348,51.3835227 237.454545,50.5833333 237.454545,49.6590909 C237.454545,48.7424242 237.297348,47.9469697 236.982955,47.2727273 C236.668561,46.5984848 236.231061,46.0776515 235.670455,45.7102273 C235.109848,45.342803 234.462121,45.1590909 233.727273,45.1590909 C233.159091,45.1590909 232.70928,45.2528409 232.377841,45.4403409 C232.046402,45.6278409 231.792614,45.8399621 231.616477,46.0767045 C231.440341,46.313447 231.30303,46.5075758 231.204545,46.6590909 L231.204545,46.6590909 L231.090909,46.6590909 L231.090909,42.3636364 L229.75,42.3636364 L229.75,54 L231.045455,54 L231.045455,52.6590909 L231.204545,52.6590909 C231.30303,52.8181818 231.443182,53.0179924 231.625,53.2585227 C231.806818,53.499053 232.066288,53.7130682 232.403409,53.9005682 C232.74053,54.0880682 233.189394,54.1818182 233.75,54.1818182 Z M233.568182,52.9772727 C233.030303,52.9772727 232.575758,52.8361742 232.204545,52.5539773 C231.833333,52.2717803 231.551136,51.8797348 231.357955,51.3778409 C231.164773,50.875947 231.068182,50.2954545 231.068182,49.6363636 C231.068182,48.9848485 231.162879,48.4138258 231.352273,47.9232955 C231.541667,47.4327652 231.82197,47.0501894 232.193182,46.7755682 C232.564394,46.500947 233.022727,46.3636364 233.568182,46.3636364 C234.136364,46.3636364 234.608902,46.5085227 234.985795,46.7982955 C235.362689,47.0880682 235.644886,47.4801136 235.832386,47.9744318 C236.019886,48.46875 236.113636,49.0227273 236.113636,49.6363636 C236.113636,50.2575758 236.017992,50.8210227 235.826705,51.3267045 C235.635417,51.8323864 235.351326,52.2339015 234.974432,52.53125 C234.597538,52.8285985 234.128788,52.9772727 233.568182,52.9772727 Z M243.159091,54.1818182 C243.75,54.1818182 244.282197,54.0899621 244.755682,53.90625 C245.229167,53.7225379 245.626894,53.4649621 245.948864,53.1335227 C246.270833,52.8020833 246.5,52.4166667 246.636364,51.9772727 L246.636364,51.9772727 L245.340909,51.6136364 C245.227273,51.9166667 245.066288,52.1695076 244.857955,52.3721591 C244.649621,52.5748106 244.402462,52.7263258 244.116477,52.8267045 C243.830492,52.9270833 243.511364,52.9772727 243.159091,52.9772727 C242.617424,52.9772727 242.142045,52.8589015 241.732955,52.6221591 C241.323864,52.3854167 241.004735,52.0388258 240.775568,51.5823864 C240.546402,51.125947 240.431818,50.5681818 240.431818,49.9090909 L240.435,50.091 L246.772727,50.0909091 L246.772727,49.5227273 C246.772727,48.7083333 246.664773,48.0227273 246.448864,47.4659091 C246.232955,46.9090909 245.943182,46.4611742 245.579545,46.1221591 C245.215909,45.7831439 244.8125,45.5378788 244.369318,45.3863636 C243.926136,45.2348485 243.477273,45.1590909 243.022727,45.1590909 C242.234848,45.1590909 241.546402,45.3513258 240.957386,45.7357955 C240.368371,46.1202652 239.910038,46.6543561 239.582386,47.3380682 C239.254735,48.0217803 239.090909,48.8106061 239.090909,49.7045455 C239.090909,50.5984848 239.254735,51.3816288 239.582386,52.0539773 C239.910038,52.7263258 240.377841,53.249053 240.985795,53.6221591 C241.59375,53.9952652 242.318182,54.1818182 243.159091,54.1818182 Z M240.440499,48.8983586 C240.469434,48.5058923 240.570707,48.1344697 240.744318,47.7840909 C240.952652,47.3636364 241.250947,47.0217803 241.639205,46.7585227 C242.027462,46.4952652 242.488636,46.3636364 243.022727,46.3636364 C243.507576,46.3636364 243.928977,46.4753788 244.286932,46.6988636 C244.644886,46.9223485 244.921402,47.2272727 245.116477,47.6136364 C245.311553,48 245.409091,48.4393939 245.409091,48.9318182 L245.409091,48.9318182 L240.439,48.932 L240.440499,48.8983586 Z M249.5,43.8181818 C249.761364,43.8181818 249.985795,43.7291667 250.173295,43.5511364 C250.360795,43.3731061 250.454545,43.1590909 250.454545,42.9090909 C250.454545,42.6590909 250.360795,42.4450758 250.173295,42.2670455 C249.985795,42.0890152 249.761364,42 249.5,42 C249.238636,42 249.014205,42.0890152 248.826705,42.2670455 C248.639205,42.4450758 248.545455,42.6590909 248.545455,42.9090909 C248.545455,43.1590909 248.639205,43.3731061 248.826705,43.5511364 C249.014205,43.7291667 249.238636,43.8181818 249.5,43.8181818 Z M250.159091,54 L250.159091,45.2727273 L248.818182,45.2727273 L248.818182,54 L250.159091,54 Z M253.954545,54 L253.954545,48.5454545 C253.954545,48.1174242 254.046402,47.7395833 254.230114,47.4119318 C254.413826,47.0842803 254.65625,46.8276515 254.957386,46.6420455 C255.258523,46.4564394 255.583333,46.3636364 255.931818,46.3636364 C256.439394,46.3636364 256.854167,46.5160985 257.176136,46.8210227 C257.498106,47.125947 257.659091,47.5265152 257.659091,48.0227273 L257.659091,48.0227273 L257.659091,54 L259.022727,54 L259.022727,48.3181818 C259.022727,47.7537879 259.191288,47.2869318 259.528409,46.9176136 C259.86553,46.5482955 260.340909,46.3636364 260.954545,46.3636364 C261.431818,46.3636364 261.846591,46.5018939 262.198864,46.7784091 C262.551136,47.0549242 262.727273,47.5151515 262.727273,48.1590909 L262.727273,48.1590909 L262.727273,54 L264.068182,54 L264.068182,48.1590909 C264.068182,47.1325758 263.820076,46.375947 263.323864,45.8892045 C262.827652,45.4024621 262.189394,45.1590909 261.409091,45.1590909 C260.784091,45.1590909 260.248106,45.2926136 259.801136,45.5596591 C259.354167,45.8267045 259.018939,46.1856061 258.795455,46.6363636 L258.795455,46.6363636 L258.704545,46.6363636 C258.488636,46.1704545 258.188447,45.8077652 257.803977,45.5482955 C257.419508,45.2888258 256.939394,45.1590909 256.363636,45.1590909 C255.795455,45.1590909 255.308712,45.2888258 254.903409,45.5482955 C254.498106,45.8077652 254.204545,46.1704545 254.022727,46.6363636 L254.022727,46.6363636 L253.909091,46.6363636 L253.909091,45.2727273 L252.613636,45.2727273 L252.613636,54 L253.954545,54 Z M274.886364,54.2045455 C275.780303,54.2045455 276.54072,54.0549242 277.167614,53.7556818 C277.794508,53.4564394 278.27178,53.0530303 278.599432,52.5454545 C278.927083,52.0378788 279.090909,51.469697 279.090909,50.8409091 C279.090909,50.2954545 278.979167,49.8352273 278.755682,49.4602273 C278.532197,49.0852273 278.249053,48.7774621 277.90625,48.5369318 C277.563447,48.2964015 277.205492,48.1060606 276.832386,47.9659091 C276.45928,47.8257576 276.121212,47.7159091 275.818182,47.6363636 L275.818182,47.6363636 L274.636364,47.3181818 C274.420455,47.2613636 274.183712,47.186553 273.926136,47.09375 C273.668561,47.000947 273.422348,46.8816288 273.1875,46.7357955 C272.952652,46.5899621 272.760417,46.40625 272.610795,46.1846591 C272.461174,45.9630682 272.386364,45.6969697 272.386364,45.3863636 C272.386364,45.0151515 272.493371,44.6837121 272.707386,44.3920455 C272.921402,44.1003788 273.220644,43.8712121 273.605114,43.7045455 C273.989583,43.5378788 274.439394,43.4545455 274.954545,43.4545455 C275.659091,43.4545455 276.253788,43.6136364 276.738636,43.9318182 C277.223485,44.25 277.5,44.6969697 277.568182,45.2727273 L277.568182,45.2727273 L278.931818,45.2727273 C278.912879,44.6856061 278.732008,44.1609848 278.389205,43.6988636 C278.046402,43.2367424 277.583333,42.8721591 277,42.6051136 C276.416667,42.3380682 275.75,42.2045455 275,42.2045455 C274.257576,42.2045455 273.586174,42.3399621 272.985795,42.6107955 C272.385417,42.8816288 271.908144,43.2604167 271.553977,43.7471591 C271.199811,44.2339015 271.022727,44.8030303 271.022727,45.4545455 C271.022727,46.2386364 271.287879,46.8731061 271.818182,47.3579545 C272.348485,47.842803 273.068182,48.2159091 273.977273,48.4772727 L273.977273,48.4772727 L275.409091,48.8863636 C275.818182,49 276.198864,49.1325758 276.551136,49.2840909 C276.903409,49.4356061 277.1875,49.6325758 277.403409,49.875 C277.619318,50.1174242 277.727273,50.4318182 277.727273,50.8181818 C277.727273,51.2424242 277.602273,51.6126894 277.352273,51.9289773 C277.102273,52.2452652 276.763258,52.4914773 276.335227,52.6676136 C275.907197,52.84375 275.424242,52.9318182 274.886364,52.9318182 C274.424242,52.9318182 273.993371,52.8626894 273.59375,52.7244318 C273.194129,52.5861742 272.864583,52.374053 272.605114,52.0880682 C272.345644,51.8020833 272.19697,51.4393939 272.159091,51 L272.159091,51 L270.704545,51 C270.75,51.6363636 270.946023,52.1950758 271.292614,52.6761364 C271.639205,53.157197 272.116477,53.532197 272.724432,53.8011364 C273.332386,54.0700758 274.05303,54.2045455 274.886364,54.2045455 Z M282.568182,54 L282.568182,48.5454545 C282.568182,48.1174242 282.660038,47.7395833 282.84375,47.4119318 C283.027462,47.0842803 283.269886,46.8276515 283.571023,46.6420455 C283.872159,46.4564394 284.19697,46.3636364 284.545455,46.3636364 C285.05303,46.3636364 285.467803,46.5160985 285.789773,46.8210227 C286.111742,47.125947 286.272727,47.5265152 286.272727,48.0227273 L286.272727,48.0227273 L286.272727,54 L287.636364,54 L287.636364,48.3181818 C287.636364,47.7537879 287.804924,47.2869318 288.142045,46.9176136 C288.479167,46.5482955 288.954545,46.3636364 289.568182,46.3636364 C290.045455,46.3636364 290.460227,46.5018939 290.8125,46.7784091 C291.164773,47.0549242 291.340909,47.5151515 291.340909,48.1590909 L291.340909,48.1590909 L291.340909,54 L292.681818,54 L292.681818,48.1590909 C292.681818,47.1325758 292.433712,46.375947 291.9375,45.8892045 C291.441288,45.4024621 290.80303,45.1590909 290.022727,45.1590909 C289.397727,45.1590909 288.861742,45.2926136 288.414773,45.5596591 C287.967803,45.8267045 287.632576,46.1856061 287.409091,46.6363636 L287.409091,46.6363636 L287.318182,46.6363636 C287.102273,46.1704545 286.802083,45.8077652 286.417614,45.5482955 C286.033144,45.2888258 285.55303,45.1590909 284.977273,45.1590909 C284.409091,45.1590909 283.922348,45.2888258 283.517045,45.5482955 C283.111742,45.8077652 282.818182,46.1704545 282.636364,46.6363636 L282.636364,46.6363636 L282.522727,46.6363636 L282.522727,45.2727273 L281.227273,45.2727273 L281.227273,54 L282.568182,54 Z M297.704545,54.2045455 C298.212121,54.2045455 298.642045,54.1287879 298.994318,53.9772727 C299.346591,53.8257576 299.628788,53.6420455 299.840909,53.4261364 C300.05303,53.2102273 300.204545,53.0075758 300.295455,52.8181818 L300.295455,52.8181818 L300.363636,52.8181818 L300.363636,54 L301.704545,54 L301.704545,48.25 C301.704545,47.5568182 301.590909,47.0037879 301.363636,46.5909091 C301.136364,46.1780303 300.851326,45.8693182 300.508523,45.6647727 C300.16572,45.4602273 299.811553,45.3248106 299.446023,45.2585227 C299.080492,45.1922348 298.757576,45.1590909 298.477273,45.1590909 C298.037879,45.1590909 297.591856,45.21875 297.139205,45.3380682 C296.686553,45.4573864 296.269886,45.6657197 295.889205,45.9630682 C295.508523,46.2604167 295.204545,46.6742424 294.977273,47.2045455 L294.977273,47.2045455 L296.25,47.6590909 C296.397727,47.3409091 296.653409,47.0416667 297.017045,46.7613636 C297.380682,46.4810606 297.882576,46.3409091 298.522727,46.3409091 C299.140152,46.3409091 299.601326,46.4962121 299.90625,46.8068182 C300.211174,47.1174242 300.363636,47.5530303 300.363636,48.1136364 L300.363636,48.1136364 L300.363636,48.1590909 C300.363636,48.375 300.286932,48.5265152 300.133523,48.6136364 C299.980114,48.7007576 299.737689,48.7623106 299.40625,48.7982955 C299.074811,48.8342803 298.643939,48.8863636 298.113636,48.9545455 C297.708333,49.0075758 297.305871,49.0785985 296.90625,49.1676136 C296.506629,49.2566288 296.142045,49.3901515 295.8125,49.5681818 C295.482955,49.7462121 295.219697,49.9914773 295.022727,50.3039773 C294.825758,50.6164773 294.727273,51.0227273 294.727273,51.5227273 C294.727273,52.0909091 294.859848,52.5748106 295.125,52.9744318 C295.390152,53.374053 295.748106,53.6789773 296.198864,53.8892045 C296.649621,54.0994318 297.151515,54.2045455 297.704545,54.2045455 Z M297.909091,53 C297.375,53 296.934659,52.8816288 296.588068,52.6448864 C296.241477,52.4081439 296.068182,52.0568182 296.068182,51.5909091 C296.068182,51.25 296.160038,50.9801136 296.34375,50.78125 C296.527462,50.5823864 296.769886,50.4327652 297.071023,50.3323864 C297.372159,50.2320076 297.69697,50.1590909 298.045455,50.1136364 C298.189394,50.094697 298.377841,50.0710227 298.610795,50.0426136 C298.84375,50.0142045 299.08428,49.9801136 299.332386,49.9403409 C299.580492,49.9005682 299.800189,49.8532197 299.991477,49.7982955 C300.182765,49.7433712 300.306818,49.6818182 300.363636,49.6136364 L300.363636,49.6136364 L300.363636,50.8409091 C300.363636,51.2045455 300.269886,51.5511364 300.082386,51.8806818 C299.894886,52.2102273 299.618371,52.4791667 299.252841,52.6875 C298.887311,52.8958333 298.439394,53 297.909091,53 Z M305.5,54 L305.5,42.3636364 L304.159091,42.3636364 L304.159091,54 L305.5,54 Z M309.295455,54 L309.295455,42.3636364 L307.954545,42.3636364 L307.954545,54 L309.295455,54 Z M314.704545,54.1136364 C314.954545,54.1136364 315.160985,54.0956439 315.323864,54.0596591 C315.486742,54.0236742 315.613636,53.9886364 315.704545,53.9545455 L315.704545,53.9545455 L315.431818,52.75 C315.375,52.7613636 315.299242,52.7755682 315.204545,52.7926136 C315.109848,52.8096591 314.988636,52.8181818 314.840909,52.8181818 C314.643939,52.8181818 314.457386,52.7869318 314.28125,52.7244318 C314.105114,52.6619318 313.961174,52.5369318 313.849432,52.3494318 C313.737689,52.1619318 313.681818,51.8787879 313.681818,51.5 L313.681818,51.5 L313.681,46.41 L315.545455,46.4090909 L315.545455,45.2727273 L313.681,45.273 L313.681818,43.1818182 L312.340909,43.1818182 L312.34,45.273 L311.022727,45.2727273 L311.022727,46.4090909 L312.34,46.41 L312.340909,51.8636364 C312.340909,52.2987013 312.427876,52.6697588 312.601809,52.9768089 L312.696023,53.125 C312.932765,53.4583333 313.232008,53.7064394 313.59375,53.8693182 C313.955492,54.032197 314.325758,54.1136364 314.704545,54.1136364 Z M320.136364,54.2045455 C320.643939,54.2045455 321.073864,54.1287879 321.426136,53.9772727 C321.778409,53.8257576 322.060606,53.6420455 322.272727,53.4261364 C322.484848,53.2102273 322.636364,53.0075758 322.727273,52.8181818 L322.727273,52.8181818 L322.795455,52.8181818 L322.795455,54 L324.136364,54 L324.136364,48.25 C324.136364,47.5568182 324.022727,47.0037879 323.795455,46.5909091 C323.568182,46.1780303 323.283144,45.8693182 322.940341,45.6647727 C322.597538,45.4602273 322.243371,45.3248106 321.877841,45.2585227 C321.512311,45.1922348 321.189394,45.1590909 320.909091,45.1590909 C320.469697,45.1590909 320.023674,45.21875 319.571023,45.3380682 C319.118371,45.4573864 318.701705,45.6657197 318.321023,45.9630682 C317.940341,46.2604167 317.636364,46.6742424 317.409091,47.2045455 L317.409091,47.2045455 L318.681818,47.6590909 C318.829545,47.3409091 319.085227,47.0416667 319.448864,46.7613636 C319.8125,46.4810606 320.314394,46.3409091 320.954545,46.3409091 C321.57197,46.3409091 322.033144,46.4962121 322.338068,46.8068182 C322.642992,47.1174242 322.795455,47.5530303 322.795455,48.1136364 L322.795455,48.1136364 L322.795455,48.1590909 C322.795455,48.375 322.71875,48.5265152 322.565341,48.6136364 C322.411932,48.7007576 322.169508,48.7623106 321.838068,48.7982955 C321.506629,48.8342803 321.075758,48.8863636 320.545455,48.9545455 C320.140152,49.0075758 319.737689,49.0785985 319.338068,49.1676136 C318.938447,49.2566288 318.573864,49.3901515 318.244318,49.5681818 C317.914773,49.7462121 317.651515,49.9914773 317.454545,50.3039773 C317.257576,50.6164773 317.159091,51.0227273 317.159091,51.5227273 C317.159091,52.0909091 317.291667,52.5748106 317.556818,52.9744318 C317.82197,53.374053 318.179924,53.6789773 318.630682,53.8892045 C319.081439,54.0994318 319.583333,54.2045455 320.136364,54.2045455 Z M320.340909,53 C319.806818,53 319.366477,52.8816288 319.019886,52.6448864 C318.673295,52.4081439 318.5,52.0568182 318.5,51.5909091 C318.5,51.25 318.591856,50.9801136 318.775568,50.78125 C318.95928,50.5823864 319.201705,50.4327652 319.502841,50.3323864 C319.803977,50.2320076 320.128788,50.1590909 320.477273,50.1136364 C320.621212,50.094697 320.809659,50.0710227 321.042614,50.0426136 C321.275568,50.0142045 321.516098,49.9801136 321.764205,49.9403409 C322.012311,49.9005682 322.232008,49.8532197 322.423295,49.7982955 C322.614583,49.7433712 322.738636,49.6818182 322.795455,49.6136364 L322.795455,49.6136364 L322.795455,50.8409091 C322.795455,51.2045455 322.701705,51.5511364 322.514205,51.8806818 C322.326705,52.2102273 322.050189,52.4791667 321.684659,52.6875 C321.319129,52.8958333 320.871212,53 320.340909,53 Z M327.931818,54 L327.931818,42.3636364 L326.590909,42.3636364 L326.590909,54 L327.931818,54 Z M331.727273,42.3636364 L330.386364,42.3636364 L330.386364,54 L331.727273,54 L331.727,50.735 L332.666,49.864 L335.931818,54 L337.636364,54 L333.676,49.001 L337.363636,45.2727273 L335.704545,45.2727273 L331.886364,49.1590909 L331.727,49.16 L331.727273,42.3636364 Z" id="FürmehrTiefebeimSmalltalk" fill="#000000" fill-rule="nonzero"></path>
                <path d="M66.5,2.28858498 C56.4582496,2.28858498 48.2884572,10.4588334 48.2884572,20.5011443 C48.2884572,30.5434552 56.4582496,38.711415 66.5,38.711415 C76.5417504,38.711415 84.7115428,30.5434552 84.7115428,20.5011443 C84.7115428,10.4588334 76.5417504,2.28858498 66.5,2.28858498 M66.5,41 C55.1973097,41 46,31.8021769 46,20.5011443 C46,9.19782305 55.1973097,0 66.5,0 C77.8026903,0 87,9.19782305 87,20.5011443 C87,31.8021769 77.8026903,41 66.5,41" id="Fill-30" fill="#000000"></path>
                <path d="M66.2376745,32 C61.657925,32 57.5735314,29.6102876 56.0737036,25.5852622 C55.8512521,24.9808056 56.149383,24.3037204 56.7387649,24.0717777 C57.3258535,23.8538922 57.993208,24.1467491 58.2202462,24.7512057 C59.8026334,29.0152024 65.2882422,30.8613723 70.445907,28.8512025 C71.0375822,28.6333169 71.7003501,28.9261739 71.925095,29.5306305 C72.1498398,30.1350872 71.8517089,30.8121724 71.2600337,31.044115 C69.5882073,31.6907431 67.8819811,32 66.2376745,32" id="Fill-32" fill="#000000"></path>
                <path d="M62.001137,14.7272727 C61.8510517,14.7272727 61.7259807,14.85 61.7259807,15 C61.7259807,15.3022727 62.2740193,15.3022727 62.2740193,15 C62.2740193,14.85 62.1512223,14.7272727 62.001137,14.7272727 M62.001137,17 C60.8982376,17 60,16.1022727 60,15 C60,13.8977273 60.8982376,13 62.001137,13 C63.1017624,13 64,13.8977273 64,15 C64,16.1022727 63.1017624,17 62.001137,17" id="Fill-34" fill="#000000"></path>
                <path d="M75.001137,17.7259807 C74.8510517,17.7259807 74.7259807,17.8487777 74.7259807,17.998863 C74.7259807,18.3013076 75.2740193,18.3013076 75.2740193,17.998863 C75.2740193,17.8487777 75.1512223,17.7259807 75.001137,17.7259807 M75.001137,20 C73.8982376,20 73,19.1017624 73,17.998863 C73,16.8982376 73.8982376,16 75.001137,16 C76.1017624,16 77,16.8982376 77,17.998863 C77,19.1017624 76.1017624,20 75.001137,20" id="Fill-36" fill="#000000"></path>
                <g id="Group-40">
                    <mask id="mask-2" fill="white">
                        <use xlink:href="#path-1"></use>
                    </mask>
                    <g id="Clip-39"></g>
                    <path d="M2.72991667,16.5671889 C0.515916667,26.3138 6.64313889,36.0467444 16.3874722,38.2630222 C21.10475,39.3404111 25.9655278,38.5090222 30.0609722,35.9283 C34.1586944,33.3475778 37.0059167,29.3295778 38.0810278,24.6077444 C39.1538611,19.8859111 38.32475,15.0296889 35.7463056,10.9319667 C33.1655833,6.83652222 29.1475833,3.9893 24.42575,2.91418889 C19.7061944,1.8368 14.8476944,2.66818889 10.7499722,5.24663333 C6.65225,7.82735556 3.80502778,11.8476333 2.72991667,16.5694667 L2.72991667,16.5671889 Z M20.4441944,41.0009111 C18.9271944,41.0009111 17.3965278,40.8278 15.8795278,40.4838556 C4.91202778,37.9874111 -1.98280556,27.0335778 0.509083333,16.0638 L0.509083333,16.0615222 C1.71858333,10.7474667 4.92569444,6.2238 9.53591667,3.32191111 C14.1529722,0.415466667 19.6128056,-0.513866667 24.9314167,0.693355556 C30.2454722,1.90285556 34.7691389,5.10768889 37.6733056,9.71791111 C40.5751944,14.3326889 41.5090833,19.7970778 40.2995833,25.1134111 C39.0923611,30.4274667 35.8875278,34.9511333 31.2750278,37.8575778 C27.9790833,39.9303556 24.2458056,41.0009111 20.4441944,41.0009111 L20.4441944,41.0009111 Z" id="Fill-38" fill="#000000" mask="url(#mask-2)"></path>
                </g>
                <path d="M20.7253021,32 C18.2437286,32 15.7159964,31.1797602 13.4893941,29.6311842 C12.9860457,29.2796528 12.8475699,28.5673998 13.1838682,28.0366564 C13.5201665,27.5082106 14.2015552,27.3680576 14.7092996,27.7195889 C16.8721591,29.2222131 19.3735149,29.9000023 21.7100186,29.6495649 C23.9849775,29.39683 25.8598954,28.2824986 26.9874837,26.5133539 C27.321584,25.9803129 28.0073687,25.8424575 28.5085191,26.1939888 C29.0140655,26.5432226 29.1525412,27.2577732 28.816243,27.7839214 C27.321584,30.1343565 24.8817729,31.607112 21.9430096,31.9333699 C21.5385724,31.9770241 21.1341353,32 20.7253021,32" id="Fill-41" fill="#000000"></path>
                <path d="M25.7331591,15.9388201 L26.2673727,16.0592639 C26.2991982,15.9115498 26.205995,15.7661083 26.0582338,15.7320204 C25.9309318,15.7070226 25.7627113,15.8115587 25.7331591,15.9388201 L25.7331591,15.9388201 Z M25.7308858,15.9410927 L25.9354783,16.2706087 C26.0650535,16.2887889 26.2355472,16.1887978 26.2650995,16.0660815 L25.7308858,15.9410927 Z M26.0036758,18 C25.8559146,18 25.7036068,17.9840923 25.5535724,17.9500045 C24.485145,17.7091168 23.8077166,16.6387577 24.0486811,15.561581 L24.0509543,15.5547635 C24.1714366,15.0366278 24.4828718,14.5934855 24.9352485,14.3094199 C25.3876251,14.0253544 25.9127458,13.9276358 26.4446862,14.0548972 C26.9607139,14.1707959 27.4062708,14.4821318 27.690427,14.9366368 C27.9768565,15.3888692 28.0677865,15.925185 27.9495775,16.4478657 C27.8290952,16.9682738 27.5153868,17.4091436 27.0630101,17.6932092 C26.7402087,17.8954639 26.3764887,18 26.0036758,18 L26.0036758,18 Z" id="Fill-43" fill="#000000"></path>
                <path d="M12.7354717,16.9362909 L13.2673904,17.0568825 C13.2992146,16.9112625 13.2082883,16.7656424 13.0650794,16.7315127 L13.0650794,16.7292374 L12.7331985,16.9340156 L12.7354717,16.9362909 Z M12.7354717,16.9408415 L12.9355095,17.2662113 C13.0764452,17.2866891 13.2310199,17.2093285 13.2651172,17.0637084 L12.7354717,16.9408415 Z M13.0037042,19 C12.855949,19 12.7036475,18.9817975 12.5536191,18.9499431 C11.4829621,18.701934 10.8078345,17.6302614 11.0487891,16.5585889 L11.0510623,16.551763 C11.2988364,15.4755398 12.3626739,14.8111484 13.4446967,15.0477809 C13.9652496,15.1683725 14.4085153,15.4823658 14.6926599,15.9374284 C14.9768045,16.3879404 15.0677308,16.922639 14.9495266,17.4459611 C14.8335956,17.9601819 14.5176268,18.4061432 14.0652685,18.6905574 C13.7402071,18.8953356 13.3765019,19 13.0037042,19 L13.0037042,19 Z" id="Fill-45" fill="#000000"></path>
                <path d="M127.24,30 L127.24,26.052 L118.896,26.052 C121.808,23.672 126.26,20.2 126.26,15.244 C126.26,11.52 123.908,9.28 119.484,9.28 C116.572,9.28 114.22,10.68 113.184,12.276 L114.108,16.168 C115.004,15.076 116.768,14.152 119.176,14.152 C121.724,14.152 123.768,15.636 123.768,16.896 C123.768,19.92 118.868,23.952 112.68,28.32 L112.68,30 L127.24,30 Z M137.6,30 L137.6,9.56 L134.856,9.56 C134.576,11.044 131.804,12.276 130.6,12.276 L130.6,17.344 C132.084,17.344 134.94,16.224 135.64,14.964 L135.64,30 L137.6,30 Z M152.776,30 L152.776,22.496 L160.616,22.496 L160.616,18.912 L152.776,18.912 L152.776,14.684 L162.8,14.684 L162.8,9.56 L150.76,9.56 L150.76,30 L152.776,30 Z M170.108,30 L170.108,22.02 C170.108,20.06 171.116,18.968 172.488,18.968 C173.748,18.968 174.42,19.276 174.756,20.004 L175.82,15.356 C175.092,14.74 174.448,14.32 173.104,14.32 C171.956,14.32 170.556,15.104 169.912,16.784 L168.96,14.6 L166.58,14.6 L166.58,19.444 L168.26,19.444 L168.26,30 L170.108,30 Z M183.996,30.28 C186.18,30.28 187.496,29.86 188.476,29.02 L188.84,30 L189.96,30 L189.96,21.152 C189.96,15.972 188.252,14.32 184.444,14.32 C182.344,14.32 180.58,14.964 179.516,16.224 L179.628,19.836 C180.384,18.94 181.784,18.184 184.164,18.184 C186.796,18.184 188.028,19.276 188.168,21.908 C186.992,21.096 185.032,20.844 183.716,20.844 C180.244,20.844 178.116,22.58 178.116,25.66 C178.116,28.376 180.02,30.28 183.996,30.28 Z M184.024,27.34 C181.896,27.34 180.3,26.304 180.3,25.156 C180.3,23.756 181.616,22.832 184.22,22.832 C185.788,22.832 187.048,23.252 188.196,24.12 L188.196,26.108 C187.3,26.948 185.76,27.34 184.024,27.34 Z M199.648,36.804 C204.268,36.804 206.34,34.116 206.34,31.708 C206.34,29.356 205.108,27.788 202.42,27.816 C200.432,27.844 198.864,28.32 197.156,28.32 C196.372,28.32 195.812,27.872 195.784,26.92 C195.756,26.36 196.148,25.968 196.624,25.716 C197.52,26.052 198.5,26.164 199.424,26.164 C202,26.164 205.332,25.184 205.332,20.872 C205.332,19.836 205.22,18.968 205.024,18.212 C205.92,17.736 207.264,18.156 207.264,18.156 L208.272,14.6 C206.312,14.376 204.856,14.768 204.128,16.224 C203.12,14.852 201.468,14.32 199.424,14.32 C195.924,14.32 193.628,15.972 193.628,20.928 C193.628,22.58 194.076,23.728 194.804,24.512 C193.908,25.184 193.572,26.248 193.6,27.2 C193.628,28.768 194.72,30.476 196.96,30.476 C198.864,30.476 200.544,30.084 202.14,30.084 C203.204,30.084 204.044,30.644 204.044,31.428 C204.044,32.408 202.896,33.36 199.844,33.36 C197.072,33.36 194.72,32.408 193.74,30.952 L193.04,33.388 C193.74,35.32 196.596,36.804 199.648,36.804 Z M199.424,23.756 C196.652,23.756 195.476,22.384 195.476,21.012 C195.504,19.444 196.596,18.408 199.424,18.408 C202.168,18.408 203.456,19.388 203.484,21.012 C203.484,22.272 202.14,23.756 199.424,23.756 Z M215.496,30.28 C218.212,30.28 220.284,28.6 221.208,26.472 L219.892,25.492 C219.08,26.612 217.904,27.2 215.44,27.172 C212.864,27.144 211.212,25.968 210.848,23.504 L221.74,23.504 C221.74,17.12 219.248,14.32 215.44,14.32 C212.08,14.32 209.14,16.56 209.14,22.524 C209.14,27.06 211.296,30.28 215.496,30.28 Z M219.92,21.684 L210.848,21.684 C211.24,19.556 213.2,18.296 215.3,18.296 C218.156,18.296 219.92,19.976 219.92,21.684 Z M226.08,30 L226.08,21.88 C226.836,19.92 228.432,19.108 230.56,19.108 C233.192,19.108 234.256,20.396 234.256,23.252 L234.256,30 L236.02,30 L236.02,21.516 C236.02,16.028 234.424,14.32 230.7,14.32 C228.6,14.32 226.892,15.3 226.08,17.12 L226.08,14.6 L224.26,14.6 L224.26,30 L226.08,30 Z" id="21Fragen" fill="#000000" fill-rule="nonzero"></path>
            </g>
        </g>
    </g>
</svg>